<?xml version="1.0" encoding="UTF-8" standalone="no"?>
<svg
   xmlns:dc="http://purl.org/dc/elements/1.1/"
   xmlns:cc="http://creativecommons.org/ns#"
   xmlns:rdf="http://www.w3.org/1999/02/22-rdf-syntax-ns#"
   xmlns:svg="http://www.w3.org/2000/svg"
   xmlns="http://www.w3.org/2000/svg"
   version="1.1"
   id="svg2"
   xml:space="preserve"
   width="400"
   height="400"
   viewBox="0 0 400 400"><metadata
     id="metadata8"><rdf:RDF><cc:Work
         rdf:about=""><dc:format>image/svg+xml</dc:format><dc:type
           rdf:resource="http://purl.org/dc/dcmitype/StillImage" /><dc:title></dc:title></cc:Work></rdf:RDF></metadata><defs
     id="defs6"><clipPath
       clipPathUnits="userSpaceOnUse"
       id="clipPath20"><path
         d="M 0,500 H 750 V 0 H 0 Z"
         id="path18" /></clipPath><clipPath
       clipPathUnits="userSpaceOnUse"
       id="clipPath28"><path
         d="M 89.5594,436.397 H 670.074 V 76.5745 H 89.5594 Z"
         id="path26" /></clipPath><clipPath
       clipPathUnits="userSpaceOnUse"
       id="clipPath44"><path
         d="M 86.743,80.15 H 667.257 V 439.974 H 86.743 Z"
         id="path42" /></clipPath><clipPath
       clipPathUnits="userSpaceOnUse"
       id="clipPath92"><path
         d="M 86.743,80.15 H 667.257 V 439.974 H 86.743 Z"
         id="path90" /></clipPath><clipPath
       clipPathUnits="userSpaceOnUse"
       id="clipPath100"><path
         d="m 131.176,218.517 h 78.217 v -19.396 h -78.217 z"
         id="path98" /></clipPath><clipPath
       clipPathUnits="userSpaceOnUse"
       id="clipPath124"><path
         d="M 86.743,80.15 H 667.257 V 439.974 H 86.743 Z"
         id="path122" /></clipPath><clipPath
       clipPathUnits="userSpaceOnUse"
       id="clipPath164"><path
         d="m 491.335,336.389 h 96.747 v -34.245 h -96.747 z"
         id="path162" /></clipPath><clipPath
       clipPathUnits="userSpaceOnUse"
       id="clipPath168"><path
         d="m 575.305,302.144 h -62.974 c -6.812,0 -12.563,5.063 -13.427,11.82 l -7.569,22.425 h 71.345 c 11.634,0 27.486,-9.456 25.175,-22.845 -1.024,-5.931 -5.379,-10.99 -11.627,-11.372 -0.305,-0.019 -0.612,-0.028 -0.923,-0.028"
         id="path166" /></clipPath><linearGradient
       x1="0"
       y1="0"
       x2="1"
       y2="0"
       gradientUnits="userSpaceOnUse"
       gradientTransform="matrix(0,34.245331,34.245331,0,539.70844,302.14398)"
       spreadMethod="pad"
       id="linearGradient182"><stop
         style="stop-opacity:1;stop-color:#ffffff"
         offset="0"
         id="stop174" /><stop
         style="stop-opacity:1;stop-color:#ffffff"
         offset="0.0583386"
         id="stop176" /><stop
         style="stop-opacity:1;stop-color:#ffffff"
         offset="0.38869034"
         id="stop178" /><stop
         style="stop-opacity:0;stop-color:#ffffff"
         offset="1"
         id="stop180" /></linearGradient><mask
       maskUnits="userSpaceOnUse"
       x="0"
       y="0"
       width="1"
       height="1"
       id="mask184"><g
         id="g194"><g
           id="g192"><g
             id="g190"><g
               id="g188"><path
                 d="M -32768,32767 H 32767 V -32768 H -32768 Z"
                 style="fill:url(#linearGradient182);stroke:none"
                 id="path186" /></g></g></g></g></mask><linearGradient
       x1="0"
       y1="0"
       x2="1"
       y2="0"
       gradientUnits="userSpaceOnUse"
       gradientTransform="matrix(0,34.245331,34.245331,0,539.70844,302.14398)"
       spreadMethod="pad"
       id="linearGradient204"><stop
         style="stop-opacity:1;stop-color:#ffffff"
         offset="0"
         id="stop196" /><stop
         style="stop-opacity:1;stop-color:#ffffff"
         offset="0.0583386"
         id="stop198" /><stop
         style="stop-opacity:1;stop-color:#ffffff"
         offset="0.38869034"
         id="stop200" /><stop
         style="stop-opacity:1;stop-color:#ffffff"
         offset="1"
         id="stop202" /></linearGradient><clipPath
       clipPathUnits="userSpaceOnUse"
       id="clipPath238"><path
         d="m 510.305,252.113 h 88.052 v 23.123 h -88.052 z"
         id="path236" /></clipPath><linearGradient
       x1="0"
       y1="0"
       x2="1"
       y2="0"
       gradientUnits="userSpaceOnUse"
       gradientTransform="matrix(0,23.122471,23.122471,0,554.33179,252.1138)"
       spreadMethod="pad"
       id="linearGradient252"><stop
         style="stop-opacity:1;stop-color:#ffffff"
         offset="0"
         id="stop248" /><stop
         style="stop-opacity:0;stop-color:#ffffff"
         offset="1"
         id="stop250" /></linearGradient><mask
       maskUnits="userSpaceOnUse"
       x="0"
       y="0"
       width="1"
       height="1"
       id="mask254"><g
         id="g264"><g
           id="g262"><g
             id="g260"><g
               id="g258"><path
                 d="M -32768,32767 H 32767 V -32768 H -32768 Z"
                 style="fill:url(#linearGradient252);stroke:none"
                 id="path256" /></g></g></g></g></mask><linearGradient
       x1="0"
       y1="0"
       x2="1"
       y2="0"
       gradientUnits="userSpaceOnUse"
       gradientTransform="matrix(0,23.122471,23.122471,0,554.33179,252.1138)"
       spreadMethod="pad"
       id="linearGradient274"><stop
         style="stop-opacity:1;stop-color:#b70060"
         offset="0"
         id="stop270" /><stop
         style="stop-opacity:1;stop-color:#b70060"
         offset="1"
         id="stop272" /></linearGradient><clipPath
       clipPathUnits="userSpaceOnUse"
       id="clipPath284"><path
         d="M 86.743,80.15 H 667.257 V 439.974 H 86.743 Z"
         id="path282" /></clipPath><clipPath
       clipPathUnits="userSpaceOnUse"
       id="clipPath308"><path
         d="m 406.125,260.532 h 53.639 v 55.622 h -53.639 z"
         id="path306" /></clipPath><linearGradient
       x1="0"
       y1="0"
       x2="1"
       y2="0"
       gradientUnits="userSpaceOnUse"
       gradientTransform="matrix(53.638123,0,0,-53.638123,406.12546,288.34274)"
       spreadMethod="pad"
       id="linearGradient322"><stop
         style="stop-opacity:1;stop-color:#ffffff"
         offset="0"
         id="stop318" /><stop
         style="stop-opacity:0;stop-color:#ffffff"
         offset="1"
         id="stop320" /></linearGradient><mask
       maskUnits="userSpaceOnUse"
       x="0"
       y="0"
       width="1"
       height="1"
       id="mask324"><g
         id="g334"><g
           id="g332"><g
             id="g330"><g
               id="g328"><path
                 d="M -32768,32767 H 32767 V -32768 H -32768 Z"
                 style="fill:url(#linearGradient322);stroke:none"
                 id="path326" /></g></g></g></g></mask><linearGradient
       x1="0"
       y1="0"
       x2="1"
       y2="0"
       gradientUnits="userSpaceOnUse"
       gradientTransform="matrix(53.638123,0,0,-53.638123,406.12546,288.34274)"
       spreadMethod="pad"
       id="linearGradient344"><stop
         style="stop-opacity:1;stop-color:#ffffff"
         offset="0"
         id="stop340" /><stop
         style="stop-opacity:1;stop-color:#ffffff"
         offset="1"
         id="stop342" /></linearGradient><clipPath
       clipPathUnits="userSpaceOnUse"
       id="clipPath354"><path
         d="M 86.743,80.15 H 667.257 V 439.974 H 86.743 Z"
         id="path352" /></clipPath><clipPath
       clipPathUnits="userSpaceOnUse"
       id="clipPath376"><path
         d="M 436.397,292.162 463.699,272.733 491,292.162 Z"
         id="path374" /></clipPath><linearGradient
       x1="0"
       y1="0"
       x2="1"
       y2="0"
       gradientUnits="userSpaceOnUse"
       gradientTransform="matrix(54.600891,0,0,-54.600891,436.39822,282.4472)"
       spreadMethod="pad"
       id="linearGradient394"><stop
         style="stop-opacity:1;stop-color:#ffffff"
         offset="0"
         id="stop386" /><stop
         style="stop-opacity:1;stop-color:#ffffff"
         offset="0.348697"
         id="stop388" /><stop
         style="stop-opacity:1;stop-color:#ffffff"
         offset="0.58927763"
         id="stop390" /><stop
         style="stop-opacity:0;stop-color:#ffffff"
         offset="1"
         id="stop392" /></linearGradient><mask
       maskUnits="userSpaceOnUse"
       x="0"
       y="0"
       width="1"
       height="1"
       id="mask396"><g
         id="g406"><g
           id="g404"><g
             id="g402"><g
               id="g400"><path
                 d="M -32768,32767 H 32767 V -32768 H -32768 Z"
                 style="fill:url(#linearGradient394);stroke:none"
                 id="path398" /></g></g></g></g></mask><linearGradient
       x1="0"
       y1="0"
       x2="1"
       y2="0"
       gradientUnits="userSpaceOnUse"
       gradientTransform="matrix(54.600891,0,0,-54.600891,436.39822,282.4472)"
       spreadMethod="pad"
       id="linearGradient420"><stop
         style="stop-opacity:1;stop-color:#ffffff"
         offset="0"
         id="stop412" /><stop
         style="stop-opacity:1;stop-color:#ffffff"
         offset="0.348697"
         id="stop414" /><stop
         style="stop-opacity:1;stop-color:#ffffff"
         offset="0.58927763"
         id="stop416" /><stop
         style="stop-opacity:1;stop-color:#ffffff"
         offset="1"
         id="stop418" /></linearGradient><clipPath
       clipPathUnits="userSpaceOnUse"
       id="clipPath430"><path
         d="M 86.743,80.15 H 667.257 V 439.974 H 86.743 Z"
         id="path428" /></clipPath><clipPath
       clipPathUnits="userSpaceOnUse"
       id="clipPath438"><path
         d="m 451.691,342.557 h 53.626 v -90.443 h -53.626 z"
         id="path436" /></clipPath><clipPath
       clipPathUnits="userSpaceOnUse"
       id="clipPath462"><path
         d="m 521.643,114.112 c -10.412,-1.222 -21.128,-4.93 -27.753,-13.056 v 0 c -3.38,-4.147 -5.522,-9.23 -9.158,-13.154 v 0 c -3.544,-3.823 -8.209,-6.235 -13.239,-7.752 v 0 h 154.16 c -6.008,6.7 -10.141,15.643 -18.51,18.635 v 0 c -7.238,2.588 -15.126,-0.258 -22.706,-1.536 v 0 c -14.464,-2.438 -29.855,1.227 -41.668,9.921 v 0 c -3.072,2.261 -5.984,4.884 -9.562,6.2 v 0 c -2.15,0.791 -4.427,1.065 -6.726,1.065 v 0 c -1.615,0 -3.24,-0.135 -4.838,-0.323"
         id="path460" /></clipPath><linearGradient
       x1="0"
       y1="0"
       x2="1"
       y2="0"
       gradientUnits="userSpaceOnUse"
       gradientTransform="matrix(0,-68.570496,-68.570496,0,540.33179,114.43584)"
       spreadMethod="pad"
       id="linearGradient478"><stop
         style="stop-opacity:0.50000763;stop-color:#ffffff"
         offset="0"
         id="stop472" /><stop
         style="stop-opacity:0;stop-color:#ffffff"
         offset="0.22722418"
         id="stop474" /><stop
         style="stop-opacity:0;stop-color:#ffffff"
         offset="1"
         id="stop476" /></linearGradient><mask
       maskUnits="userSpaceOnUse"
       x="0"
       y="0"
       width="1"
       height="1"
       id="mask480"><g
         id="g490"><g
           id="g488"><g
             id="g486"><g
               id="g484"><path
                 d="M -32768,32767 H 32767 V -32768 H -32768 Z"
                 style="fill:url(#linearGradient478);stroke:none"
                 id="path482" /></g></g></g></g></mask><linearGradient
       x1="0"
       y1="0"
       x2="1"
       y2="0"
       gradientUnits="userSpaceOnUse"
       gradientTransform="matrix(0,-68.570496,-68.570496,0,540.33179,114.43584)"
       spreadMethod="pad"
       id="linearGradient502"><stop
         style="stop-opacity:1;stop-color:#ffffff"
         offset="0"
         id="stop496" /><stop
         style="stop-opacity:1;stop-color:#ffffff"
         offset="0.22722418"
         id="stop498" /><stop
         style="stop-opacity:1;stop-color:#ffffff"
         offset="1"
         id="stop500" /></linearGradient><clipPath
       clipPathUnits="userSpaceOnUse"
       id="clipPath512"><path
         d="M 0,500 H 750 V 0 H 0 Z"
         id="path510" /></clipPath></defs><g
     id="g10"
     transform="matrix(1.3333333,0,0,-1.3333333,0,666.66667)"><path
       d="m 138.83491,325.66127 v 49.462 c 0,22.634 18.348,40.982 40.981,40.982 h 2.5 c 22.634,0 40.982,-18.348 40.982,-40.982 v -49.462"
       style="fill:#816a3c;fill-opacity:1;stroke:#d06a3c;stroke-width:7;stroke-linecap:butt;stroke-linejoin:miter;stroke-miterlimit:10;stroke-dasharray:none;stroke-opacity:1"
       id="path152" /><path
       d="M 221.25211,325.66117 H 89.180108 v 90.444 h 91.873002 c 18.004,0 40.199,-14.595 40.199,-32.599 z"
       style="fill:#f2753c;fill-opacity:1;fill-rule:nonzero;stroke:none"
       id="path156" /><g
       id="g158"
       transform="translate(-377.10569,73.547367)"><g
         id="g160" /><g
         id="g222"><g
           clip-path="url(#clipPath164)"
           opacity="0.259995"
           id="g220"><g
             id="g218"><g
               clip-path="url(#clipPath168)"
               id="g216"><g
                 id="g214"><g
                   id="g206" /><g
                   mask="url(#mask184)"
                   id="g212"><g
                     id="g210"><path
                       d="m 575.305,302.144 h -62.974 c -6.812,0 -12.563,5.063 -13.427,11.82 l -7.569,22.425 h 71.345 c 11.634,0 27.486,-9.456 25.175,-22.845 -1.024,-5.931 -5.379,-10.99 -11.627,-11.372 -0.305,-0.019 -0.612,-0.028 -0.923,-0.028"
                       style="fill:url(#linearGradient204);stroke:none"
                       id="path208" /></g></g></g></g></g></g></g></g><g
       id="g224"
       transform="translate(167.06951,450.27147)"><path
         d="m 0,0 h -11.384 -2.653 -5.472 v -5.471 -4.309 -36.18 -20.437 -9.15 c 0,-6.234 5.054,-11.287 11.287,-11.287 6.234,0 11.287,5.053 11.287,11.287 v 14.351 l -14.449,9.752 v 36.193 H 0 c 3.022,0 5.472,2.45 5.472,5.471 v 4.309 C 5.472,-2.449 3.022,0 0,0"
         style="fill:#3779d9;fill-opacity:1;fill-rule:nonzero;stroke:none"
         id="path226" /></g><g
       id="g228"
       transform="translate(162.61731,375.69137)"><path
         d="m 0,0 c 0,-2.192 -1.776,-3.969 -3.969,-3.969 -2.191,0 -3.968,1.777 -3.968,3.969 0,2.192 1.777,3.968 3.968,3.968 C -1.776,3.968 0,2.192 0,0"
         style="fill:#1a06ff;fill-opacity:1;fill-rule:nonzero;stroke:none"
         id="path230" /></g><g
       id="g232"
       transform="translate(-377.10569,73.547367)"><g
         id="g234"
         clip-path="url(#clipPath238)"><g
           id="g240"><g
             id="g242" /><g
             id="g266"
             mask="url(#mask254)"><g
               id="g268"><path
                 d="m 510.305,252.113 h 88.052 v 23.123 h -88.052 z"
                 style="fill:url(#linearGradient274);stroke:none"
                 id="path276" /></g></g></g></g></g><g
       id="g286"
       transform="translate(131.41131,325.66117)"><path
         d="m 0,0 h -84.463 v 49.462 c 0,22.634 18.348,40.982 40.982,40.982 h 2.5 C -18.348,90.444 0,72.096 0,49.462 Z"
         style="fill:#b70060;fill-opacity:1;fill-rule:nonzero;stroke:none"
         id="path288" /></g><path
       d="M 131.41131,325.66137 H 2.2743078 v 8.418 H 131.41131 Z"
       style="fill:#c86a3c;fill-opacity:1;fill-rule:nonzero;stroke:none"
       id="path290" /><path
       d="m 141.83491,294.17827 1e-5,20.29799 h 196.71101 l -10e-6,-20.29799 z"
       style="fill:#f26a3c;fill-opacity:1;fill-rule:nonzero;stroke:none"
       id="path292" /><g
       id="g294"
       transform="translate(162.13291,304.17827)"><path
         d="M 0,0 -20.298,-10 V 21.483 H 0 Z"
         style="fill:#990058;fill-opacity:1;fill-rule:nonzero;stroke:none"
         id="path296" /></g><g
       id="g298"
       transform="translate(125.25991,389.70117)"><path
         d="m 0,0 h -71.562 -7.485 -17.193 v -55.622 h 14.727 7 77.464 v 41.044 C 2.951,-9.41 1.9,-4.483 0,0"
         style="fill:#f3f3f5;fill-opacity:1;fill-rule:nonzero;stroke:none"
         id="path300" /></g><g
       id="g302"
       transform="translate(-377.10569,73.547367)"><g
         id="g304"
         clip-path="url(#clipPath308)"><g
           id="g310"><g
             id="g312" /><g
             id="g336"
             mask="url(#mask324)"><g
               id="g338"><path
                 d="m 406.125,260.532 h 53.639 v 55.622 h -53.639 z"
                 style="fill:url(#linearGradient344);stroke:none"
                 id="path346" /></g></g></g></g></g><g
       id="g348"
       transform="translate(-377.10569,73.547367)"><g
         id="g350"
         clip-path="url(#clipPath354)"><path
           d="m 430.398,307.379 h -17.531 v 1.543 h 17.531 z"
           style="fill:#9e9e9e;fill-opacity:1;fill-rule:nonzero;stroke:none"
           id="path356" /><path
           d="m 430.398,303.646 h -17.531 v 1.543 h 17.531 z"
           style="fill:#9e9e9e;fill-opacity:1;fill-rule:nonzero;stroke:none"
           id="path358" /><path
           d="m 430.398,299.912 h -17.531 v 1.543 h 17.531 z"
           style="fill:#9e9e9e;fill-opacity:1;fill-rule:nonzero;stroke:none"
           id="path360" /><path
           d="m 419.317,296.178 h -6.45 v 1.543 h 6.45 z"
           style="fill:#9e9e9e;fill-opacity:1;fill-rule:nonzero;stroke:none"
           id="path362" /><g
           id="g364"
           transform="translate(495.3636,295.2432)"><path
             d="m 0,0 c 0,-6.375 -5.168,-11.544 -11.544,-11.544 -6.376,0 -11.545,5.169 -11.545,11.544 0,6.376 5.169,11.545 11.545,11.545 C -5.168,11.545 0,6.376 0,0"
             style="fill:#d6d6d6;fill-opacity:1;fill-rule:nonzero;stroke:none"
             id="path366" /></g><path
           d="m 490.999,260.532 h -54.602 v 31.63 h 54.602 z"
           style="fill:#ededed;fill-opacity:1;fill-rule:nonzero;stroke:none"
           id="path368" /></g></g><g
       id="g370"
       transform="translate(-377.10569,73.547367)"><g
         id="g372"
         clip-path="url(#clipPath376)"><g
           id="g378"><g
             id="g380" /><g
             id="g408"
             mask="url(#mask396)"><g
               id="g410"><path
                 d="M 436.397,292.162 463.699,272.733 491,292.162 Z"
                 style="fill:url(#linearGradient420);stroke:none"
                 id="path422" /></g></g></g></g></g><g
       id="g432"
       style="fill:#e56a3c;fill-opacity:1"
       transform="translate(-377.10569,73.547367)"><g
         id="g434"
         style="fill:#e56a3c;fill-opacity:1" /><g
         id="g446"
         style="fill:#e56a3c;fill-opacity:1"><g
           clip-path="url(#clipPath438)"
           opacity="0.380005"
           id="g444"
           style="fill:#e56a3c;fill-opacity:1"><g
             transform="translate(464.3353,342.5576)"
             id="g442"
             style="fill:#e56a3c;fill-opacity:1"><path
               d="M 0,0 H -2.5 C -6.002,0 -9.399,-0.441 -12.645,-1.268 5.083,-5.782 18.193,-21.85 18.193,-40.981 v -49.463 h 22.788 v 49.463 C 40.981,-18.348 22.634,0 0,0"
               style="fill:#e56a3c;fill-opacity:1;fill-rule:nonzero;stroke:none"
               id="path440" /></g></g></g></g><g
       id="g448"
       transform="translate(90.429808,419.60497)"
       style="fill:#e56a3c;fill-opacity:1"><path
         d="M 0,0 H -2.501 C -22.058,0 -38.62,-12.33 -44.564,-29.906 l 7.558,0.002 C -31.371,-16.319 -18.1,-7 -2.501,-7 H 0 c 20.667,0 37.481,-16.814 37.481,-37.481 v -49.463 h 7 v 49.463 C 44.481,-19.954 24.527,0 0,0"
         style="fill:#e56a3c;fill-opacity:1;fill-rule:nonzero;stroke:none"
         id="path450" /></g></g></svg>
