<?xml version="1.0" encoding="UTF-8" standalone="no"?>
<svg
   xmlns:dc="http://purl.org/dc/elements/1.1/"
   xmlns:cc="http://creativecommons.org/ns#"
   xmlns:rdf="http://www.w3.org/1999/02/22-rdf-syntax-ns#"
   xmlns:svg="http://www.w3.org/2000/svg"
   xmlns="http://www.w3.org/2000/svg"
   version="1.1"
   id="svg2"
   xml:space="preserve"
   width="666.66669"
   height="666.66669"
   viewBox="0 0 666.66669 666.66669"><metadata
     id="metadata8"><rdf:RDF><cc:Work
         rdf:about=""><dc:format>image/svg+xml</dc:format><dc:type
           rdf:resource="http://purl.org/dc/dcmitype/StillImage" /><dc:title></dc:title></cc:Work></rdf:RDF></metadata><defs
     id="defs6"><clipPath
       clipPathUnits="userSpaceOnUse"
       id="clipPath20"><path
         d="M 0,500 H 500 V 0 H 0 Z"
         id="path18" /></clipPath><clipPath
       clipPathUnits="userSpaceOnUse"
       id="clipPath28"><path
         d="M 37.4735,108.161 H 456.713 V 95.3338 H 37.4735 Z"
         id="path26" /></clipPath><clipPath
       clipPathUnits="userSpaceOnUse"
       id="clipPath32"><path
         d="M 37.4735,108.161 H 456.713 V 95.3338 H 37.4735 Z"
         id="path30" /></clipPath><clipPath
       clipPathUnits="userSpaceOnUse"
       id="clipPath472"><path
         d="m 278.976,404.262 h 53.27 v -53.269 h -53.27 z"
         id="path470" /></clipPath><clipPath
       clipPathUnits="userSpaceOnUse"
       id="clipPath520"><path
         d="M 0,500 H 500 V 0 H 0 Z"
         id="path518" /></clipPath></defs><g
     id="g10"
     transform="matrix(1.3333333,0,0,-1.3333333,0,666.66667)"><g
       id="g14"><g
         id="g16"
         clip-path="url(#clipPath20)"><g
           id="g22"><g
             id="g24" /><g
             id="g48"><g
               clip-path="url(#clipPath28)"
               opacity="0.5"
               id="g46"><g
                 id="g44"><g
                   id="g34" /><g
                   id="g42"><g
                     clip-path="url(#clipPath32)"
                     opacity="0.0899963"
                     id="g40"><g
                       transform="translate(456.7129,101.7471)"
                       id="g38"><path
                         d="m 0,0 c 0,-3.542 -78.317,-6.413 -199.613,-6.413 -121.296,0 -219.626,2.871 -219.626,6.413 0,3.543 98.33,6.414 219.626,6.414 C -78.317,6.414 0,3.543 0,0"
                         style="fill:#312b2a;fill-opacity:1;fill-rule:nonzero;stroke:none"
                         id="path36" /></g></g></g></g></g></g></g><g
           id="g50"
           transform="translate(291.1855,369.0176)"><path
             d="m 0,0 c -2.097,0 -4.05,1.34 -4.726,3.44 -0.836,2.604 0.6,5.404 3.203,6.242 l 24.521,7.889 c 2.966,0.955 6.158,-0.682 7.112,-3.649 C 31.065,10.955 29.428,7.764 26.461,6.81 L 11.22,1.906 c -0.353,-0.117 -0.733,0.08 -0.847,0.434 -0.114,0.354 0.08,0.733 0.435,0.847 l 15.241,4.904 c 2.26,0.727 3.507,3.158 2.78,5.418 -0.35,1.09 -1.109,1.98 -2.137,2.508 -1.026,0.526 -2.191,0.623 -3.282,0.273 L -1.111,8.4 C -3.008,7.79 -4.054,5.75 -3.444,3.853 -2.833,1.957 -0.79,0.912 1.104,1.52 l 18.049,5.807 c 1.534,0.494 2.379,2.143 1.886,3.676 -0.494,1.533 -2.139,2.377 -3.676,1.887 L 6.129,9.275 C 5.776,9.16 5.396,9.355 5.282,9.709 c -0.114,0.354 0.08,0.733 0.435,0.847 l 11.234,3.615 c 2.24,0.724 4.65,-0.516 5.369,-2.755 0.721,-2.241 -0.514,-4.65 -2.755,-5.37 L 1.516,0.239 C 1.013,0.077 0.502,0 0,0"
             style="fill:#c3c4ca;fill-opacity:1;fill-rule:nonzero;stroke:none"
             id="path52" /></g><g
           id="g54"
           transform="translate(132.3574,141.9658)"><path
             d="M 0,0 C 0,0 -8.893,10.686 -12.746,15.875 -22.136,28.523 -31.575,41.774 -35,57.15 -23.078,48.976 -11.98,38.636 -6.608,25.217 -3.381,17.156 0,0 0,0"
             style="fill:#4da82c;fill-opacity:1;fill-rule:nonzero;stroke:none"
             id="path56" /></g><g
           id="g58"
           transform="translate(171.751,115.5117)"><path
             d="m 0,0 c -18.836,4.612 -32.762,18.2 -43.743,33.51 -0.465,0.648 -1.549,0.024 -1.079,-0.631 C -33.651,17.305 -19.483,3.483 -0.333,-1.206 0.449,-1.397 0.782,-0.192 0,0"
             style="fill:#4da82c;fill-opacity:1;fill-rule:nonzero;stroke:none"
             id="path60" /></g><g
           id="g62"
           transform="translate(135.6621,138.0996)"><path
             d="m 0,0 c -2.551,4.244 -7.597,7.335 -12.303,8.878 -4.706,1.542 -9.663,2.14 -14.474,3.317 -5.757,1.409 -11.299,3.311 -16.414,6.303 C -34.421,4.302 -16.327,-3.448 0,0"
             style="fill:#4da82c;fill-opacity:1;fill-rule:nonzero;stroke:none"
             id="path64" /></g><g
           id="g66"
           transform="translate(158.541,119.6377)"><path
             d="m 0,0 c 0,0 -11.669,0.832 -17.889,2.191 -4.687,1.026 -9.358,2.267 -13.714,4.278 -4.355,2.011 -8.409,4.834 -11.358,8.618 6.06,-1.958 12.632,-1.589 18.829,-3.054 C -16.329,10.188 0,0 0,0"
             style="fill:#4da82c;fill-opacity:1;fill-rule:nonzero;stroke:none"
             id="path68" /></g><g
           id="g70"
           transform="translate(162.1426,117.751)"><path
             d="m 0,0 c 0,0 -4.241,10.902 -7.377,16.443 -2.363,4.176 -4.928,8.272 -8.136,11.839 -3.209,3.568 -7.102,6.607 -11.589,8.307 3.661,-5.211 5.249,-11.599 8.479,-17.087 C -14.556,12.592 0,0 0,0"
             style="fill:#4da82c;fill-opacity:1;fill-rule:nonzero;stroke:none"
             id="path72" /></g><g
           id="g74"
           transform="translate(187.6284,276.4814)"><path
             d="m 0,0 c 1.474,7.575 -1.145,16.418 -4.985,23.112 -3.841,6.694 -8.957,12.557 -13.298,18.937 -5.195,7.637 -9.629,15.619 -12.431,24.42 C -35.367,40.884 -22.5,13.038 0,0"
             style="fill:#4da82c;fill-opacity:1;fill-rule:nonzero;stroke:none"
             id="path76" /></g><g
           id="g78"
           transform="translate(334.7686,337.6714)"><path
             d="m 0,0 c 0,0 4.691,21.15 6.323,31.09 3.979,24.223 7.595,49.318 1.362,73.062 C -2.993,84.317 -10.985,62.072 -8.848,39.647 -7.564,26.179 0,0 0,0"
             style="fill:#4da82c;fill-opacity:1;fill-rule:nonzero;stroke:none"
             id="path80" /></g><g
           id="g82"
           transform="translate(302.9443,259.873)"><path
             d="m 0,0 c 1.437,8.752 4.009,16.988 9.408,24.125 4.131,5.46 8.806,10.311 12.029,16.424 4.573,8.669 6.721,18.371 8.279,27.974 1.528,9.424 2.93,18.98 3.394,28.523 0.039,0.805 -1.211,0.802 -1.25,0 C 31.372,87.026 29.893,76.985 28.221,67.102 26.544,57.194 24.086,47.141 18.824,38.468 15.525,33.031 10.999,28.57 7.337,23.407 2.459,16.529 0.147,8.577 -1.205,0.333 -1.334,-0.455 -0.13,-0.793 0,0"
             style="fill:#4da82c;fill-opacity:1;fill-rule:nonzero;stroke:none"
             id="path84" /></g><g
           id="g86"
           transform="translate(333.6475,336.1084)"><path
             d="m 0,0 c -0.24,7.714 3.762,16.022 8.625,22.014 4.863,5.992 10.854,10.96 16.16,16.562 6.353,6.705 12.008,13.874 16.184,22.112 C 41.462,34.688 24.299,9.264 0,0"
             style="fill:#4da82c;fill-opacity:1;fill-rule:nonzero;stroke:none"
             id="path88" /></g><g
           id="g90"
           transform="translate(319.2588,292.6133)"><path
             d="m 0,0 c 0,0 14.584,10.938 21.585,17.97 5.275,5.299 10.346,10.866 14.354,17.177 4.009,6.312 6.937,13.43 7.606,20.877 C 37.26,48.345 28.339,43.281 21.457,36.131 12.792,27.129 0,0 0,0"
             style="fill:#4da82c;fill-opacity:1;fill-rule:nonzero;stroke:none"
             id="path92" /></g><g
           id="g94"
           transform="translate(321.7783,296.2852)"><path
             d="M 0,0 C 0,0 5.274,18.107 5.505,28.027 5.679,35.502 2.006,49.958 -9.752,64.176 -9.018,54.279 -9.274,50.895 -9.337,40.972 -9.417,28.477 0,0 0,0"
             style="fill:#4da82c;fill-opacity:1;fill-rule:nonzero;stroke:none"
             id="path96" /></g><g
           id="g98"
           transform="translate(206.4082,341.668)"><path
             d="m 0,0 c 0,0 -7.901,10.786 -11.292,15.997 -8.261,12.7 -16.534,25.981 -18.907,40.944 C -19.241,48.385 -9.203,37.8 -4.844,24.599 -2.225,16.67 0,0 0,0"
             style="fill:#96bd11;fill-opacity:1;fill-rule:nonzero;stroke:none"
             id="path100" /></g><g
           id="g102"
           transform="translate(340.4199,166.418)"><path
             d="m 0,0 c 1.262,7.613 6.801,14.986 12.735,19.92 5.935,4.934 12.775,8.643 19.07,13.108 7.533,5.344 14.473,11.278 20.17,18.548 C 47.408,25.976 25.635,4.368 0,0"
             style="fill:#4da82c;fill-opacity:1;fill-rule:nonzero;stroke:none"
             id="path104" /></g><g
           id="g106"
           transform="translate(320.4424,104.8926)"><path
             d="m 0,0 c 0.97,5.853 5.229,11.521 9.79,15.313 4.563,3.792 9.82,6.644 14.659,10.077 5.791,4.107 11.126,8.669 15.505,14.257 C 36.444,19.968 19.706,3.357 0,0"
             style="fill:#96bd11;fill-opacity:1;fill-rule:nonzero;stroke:none"
             id="path108" /></g><g
           id="g110"
           transform="translate(172.9629,152.3818)"><path
             d="m 0,0 c 0,0 -5.375,12.242 -7.555,18.064 -5.312,14.189 -10.508,28.948 -9.581,44.07 C -8.294,51.405 -0.789,38.896 0.604,25.063 1.442,16.756 0,0 0,0"
             style="fill:#96bd11;fill-opacity:1;fill-rule:nonzero;stroke:none"
             id="path112" /></g><g
           id="g114"
           transform="translate(376.541,275.1138)"><path
             d="M 0,0 C 0,0 13.988,27.61 21.195,40.067 38.757,70.425 57.507,101.417 85.91,121.989 79.727,90.406 68.391,58.596 45.706,35.767 32.081,22.056 0,0 0,0"
             style="fill:#96bd11;fill-opacity:1;fill-rule:nonzero;stroke:none"
             id="path116" /></g><g
           id="g118"
           transform="translate(339.375,178.9785)"><path
             d="m 0,0 c 0.121,43.098 23.092,80.955 50.804,112.296 0.53,0.6 -0.351,1.488 -0.885,0.884 C 21.989,81.592 -1.128,43.427 -1.25,0 -1.253,-0.805 -0.003,-0.806 0,0"
             style="fill:#96bd11;fill-opacity:1;fill-rule:nonzero;stroke:none"
             id="path120" /></g><g
           id="g122"
           transform="translate(370.8789,268.5889)"><path
             d="m 0,0 c 7.914,7.677 12.066,20.181 13.031,31.164 0.966,10.983 -0.243,22.034 -0.121,33.059 0.147,13.195 1.469,26.173 5.372,38.778 C -8.067,76.81 -15.727,33.659 0,0"
             style="fill:#96bd11;fill-opacity:1;fill-rule:nonzero;stroke:none"
             id="path124" /></g><g
           id="g126"
           transform="translate(342.4111,209.6514)"><path
             d="m 0,0 c 0,0 -4.094,25.722 -4.288,39.896 -0.148,10.681 0.184,21.435 2.344,31.896 2.16,10.462 6.23,20.677 12.946,28.984 C 9.819,86.647 13.939,72.583 13.895,58.406 13.839,40.555 0,0 0,0"
             style="fill:#96bd11;fill-opacity:1;fill-rule:nonzero;stroke:none"
             id="path128" /></g><g
           id="g130"
           transform="translate(330.5723,225.2344)"><path
             d="m 0,0 c 0,0 25.23,6.463 38.315,11.916 9.861,4.108 19.598,8.685 28.34,14.823 8.742,6.139 16.499,13.933 21.454,23.396 C 75.614,43.437 61.07,41.63 48.078,35.957 31.718,28.812 0,0 0,0"
             style="fill:#96bd11;fill-opacity:1;fill-rule:nonzero;stroke:none"
             id="path132" /></g><g
           id="g134"
           transform="translate(128.3364,219.0537)"><path
             d="M 0,0 C 0,0 -8.709,19.836 -12.241,29.27 -20.848,52.26 -29.269,76.174 -27.766,100.676 -13.439,83.293 -1.279,63.023 0.979,40.611 2.336,27.149 0,0 0,0"
             style="fill:#96bd11;fill-opacity:1;fill-rule:nonzero;stroke:none"
             id="path136" /></g><g
           id="g138"
           transform="translate(176.8071,146.7061)"><path
             d="m 0,0 c -2.93,7.819 -6.746,15.159 -12.572,21.217 -4.911,5.107 -10.711,9.248 -15.389,14.601 -7.153,8.186 -11.72,18.186 -15.478,28.286 -3.311,8.898 -6.519,17.944 -8.816,27.163 -0.194,0.78 -1.4,0.45 -1.205,-0.332 2.296,-9.219 5.504,-18.266 8.815,-27.163 3.419,-9.188 7.461,-18.263 13.509,-26.052 4.363,-5.62 9.819,-9.959 14.994,-14.768 C -9.125,16.433 -4.554,8.606 -1.206,-0.332 -0.926,-1.078 0.283,-0.755 0,0"
             style="fill:#96bd11;fill-opacity:1;fill-rule:nonzero;stroke:none"
             id="path140" /></g><g
           id="g142"
           transform="translate(129.7393,217.7383)"><path
             d="m 0,0 c -1.262,7.613 -6.802,14.986 -12.736,19.92 -5.934,4.934 -12.774,8.642 -19.069,13.108 -7.533,5.344 -14.473,11.278 -20.17,18.548 C -47.409,25.976 -25.635,4.368 0,0"
             style="fill:#96bd11;fill-opacity:1;fill-rule:nonzero;stroke:none"
             id="path144" /></g><g
           id="g146"
           transform="translate(152.3018,177.8652)"><path
             d="m 0,0 c 0,0 -16.431,7.898 -24.664,13.436 -6.204,4.173 -12.259,8.65 -17.417,14.063 -5.158,5.413 -9.413,11.826 -11.516,19.002 7.658,-6.313 17.392,-9.548 25.532,-15.225 C -17.817,24.128 0,0 0,0"
             style="fill:#96bd11;fill-opacity:1;fill-rule:nonzero;stroke:none"
             id="path148" /></g><g
           id="g150"
           transform="translate(149.1167,180.9785)"><path
             d="m 0,0 c 0,0 -8.69,16.738 -10.843,26.424 -1.622,7.299 -0.827,22.193 7.946,38.424 1.202,-9.851 2.111,-13.121 4.1,-22.843 C 3.707,29.763 0,0 0,0"
             style="fill:#96bd11;fill-opacity:1;fill-rule:nonzero;stroke:none"
             id="path152" /></g><g
           id="g154"
           transform="translate(331.8604,262.0269)"><path
             d="M 0,0 H -4.617 V 38.085 H 0 c 0,0 7.617,-14.332 7.617,-19.092 C 7.617,14.232 0,0 0,0"
             style="fill:#312b2a;fill-opacity:1;fill-rule:nonzero;stroke:none"
             id="path156" /></g><g
           id="g158"
           transform="translate(331.2891,258.5269)"><path
             d="m 0,0 c -0.913,0 -1.826,0.355 -2.513,1.063 -1.345,1.388 -1.311,3.604 0.076,4.95 9.276,8.996 9.502,23.861 0.505,33.136 -1.345,1.388 -1.311,3.604 0.077,4.95 1.386,1.344 3.602,1.313 4.949,-0.077 C 14.777,31.977 14.482,12.671 2.437,0.987 1.757,0.328 0.878,0 0,0"
             style="fill:#83ccf0;fill-opacity:1;fill-rule:nonzero;stroke:none"
             id="path160" /></g><path
           d="M 329.692,261.927 H 162.78 v 38.186 h 166.912 z"
           style="fill:#f7e4b3;fill-opacity:1;fill-rule:nonzero;stroke:none"
           id="path162" /><g
           id="g164"
           transform="translate(331.8701,296.6489)"><path
             d="m 0,0 h -174.788 c -1.912,0 -3.463,1.551 -3.463,3.464 0,1.913 1.551,3.464 3.463,3.464 H 0 C 1.913,6.928 3.464,5.377 3.464,3.464 3.464,1.551 1.913,0 0,0"
             style="fill:#83ccf0;fill-opacity:1;fill-rule:nonzero;stroke:none"
             id="path166" /></g><g
           id="g168"
           transform="translate(331.2891,258.4624)"><path
             d="m 0,0 h -174.207 c -1.912,0 -3.463,1.551 -3.463,3.464 0,1.913 1.551,3.464 3.463,3.464 H 0 C 1.913,6.928 3.464,5.377 3.464,3.464 3.464,1.551 1.913,0 0,0"
             style="fill:#83ccf0;fill-opacity:1;fill-rule:nonzero;stroke:none"
             id="path170" /></g><g
           id="g172"
           transform="translate(302.3418,290.604)"><path
             d="m 0,0 h -134.364 c -0.276,0 -0.5,0.224 -0.5,0.5 0,0.276 0.224,0.5 0.5,0.5 H 0 C 0.276,1 0.5,0.776 0.5,0.5 0.5,0.224 0.276,0 0,0"
             style="fill:#e8ab50;fill-opacity:1;fill-rule:nonzero;stroke:none"
             id="path174" /></g><g
           id="g176"
           transform="translate(305.0342,284.4116)"><path
             d="m 0,0 h -134.364 c -0.276,0 -0.5,0.224 -0.5,0.5 0,0.276 0.224,0.5 0.5,0.5 H 0 C 0.276,1 0.5,0.776 0.5,0.5 0.5,0.224 0.276,0 0,0"
             style="fill:#e8ab50;fill-opacity:1;fill-rule:nonzero;stroke:none"
             id="path178" /></g><g
           id="g180"
           transform="translate(323.9658,277.9487)"><path
             d="m 0,0 h -134.363 c -0.276,0 -0.5,0.224 -0.5,0.5 0,0.276 0.224,0.5 0.5,0.5 H 0 C 0.276,1 0.5,0.776 0.5,0.5 0.5,0.224 0.276,0 0,0"
             style="fill:#e8ab50;fill-opacity:1;fill-rule:nonzero;stroke:none"
             id="path182" /></g><g
           id="g184"
           transform="translate(164.6992,144.54)"><path
             d="M 0,0 H 4.618 V -38.086 H 0 c 0,0 -7.617,14.332 -7.617,19.093 C -7.617,-14.232 0,0 0,0"
             style="fill:#312b2a;fill-opacity:1;fill-rule:nonzero;stroke:none"
             id="path186" /></g><path
           d="M 166.867,144.641 H 333.779 V 106.454 H 166.867 Z"
           style="fill:#f7e4b3;fill-opacity:1;fill-rule:nonzero;stroke:none"
           id="path188" /><g
           id="g190"
           transform="translate(164.689,102.9551)"><path
             d="m 0,0 c -0.913,0 -1.826,0.355 -2.512,1.063 -11.684,12.046 -11.389,31.352 0.656,43.036 1.387,1.344 3.602,1.312 4.95,-0.077 C 4.439,42.636 4.405,40.42 3.018,39.073 -6.257,30.077 -6.484,15.212 2.513,5.937 3.858,4.549 3.824,2.333 2.437,0.987 1.757,0.328 0.878,0 0,0"
             style="fill:#83ccf0;fill-opacity:1;fill-rule:nonzero;stroke:none"
             id="path192" /></g><g
           id="g194"
           transform="translate(339.4775,102.9912)"><path
             d="m 0,0 h -174.789 c -1.912,0 -3.463,1.551 -3.463,3.464 0,1.913 1.551,3.464 3.463,3.464 H 0 C 1.913,6.928 3.464,5.377 3.464,3.464 3.464,1.551 1.913,0 0,0"
             style="fill:#83ccf0;fill-opacity:1;fill-rule:nonzero;stroke:none"
             id="path196" /></g><g
           id="g198"
           transform="translate(339.4775,141.1768)"><path
             d="m 0,0 h -174.208 c -1.912,0 -3.463,1.551 -3.463,3.464 0,1.913 1.551,3.464 3.463,3.464 H 0 C 1.913,6.928 3.464,5.377 3.464,3.464 3.464,1.551 1.913,0 0,0"
             style="fill:#83ccf0;fill-opacity:1;fill-rule:nonzero;stroke:none"
             id="path200" /></g><g
           id="g202"
           transform="translate(328.5811,114.9629)"><path
             d="m 0,0 h -134.363 c -0.276,0 -0.5,0.224 -0.5,0.5 0,0.276 0.224,0.5 0.5,0.5 H 0 C 0.276,1 0.5,0.776 0.5,0.5 0.5,0.224 0.276,0 0,0"
             style="fill:#e8ab50;fill-opacity:1;fill-rule:nonzero;stroke:none"
             id="path204" /></g><g
           id="g206"
           transform="translate(317.7578,126.792)"><path
             d="m 0,0 h -134.364 c -0.276,0 -0.5,0.224 -0.5,0.5 0,0.276 0.224,0.5 0.5,0.5 H 0 C 0.276,1 0.5,0.776 0.5,0.5 0.5,0.224 0.276,0 0,0"
             style="fill:#e8ab50;fill-opacity:1;fill-rule:nonzero;stroke:none"
             id="path208" /></g><g
           id="g210"
           transform="translate(306.9561,132.6182)"><path
             d="m 0,0 h -134.363 c -0.276,0 -0.5,0.224 -0.5,0.5 0,0.276 0.224,0.5 0.5,0.5 H 0 C 0.276,1 0.5,0.776 0.5,0.5 0.5,0.224 0.276,0 0,0"
             style="fill:#e8ab50;fill-opacity:1;fill-rule:nonzero;stroke:none"
             id="path212" /></g><g
           id="g214"
           transform="translate(355.6738,147.9736)"><path
             d="m 0,0 h -176.697 c -3.037,0 -5.5,2.463 -5.5,5.5 0,3.037 2.463,5.5 5.5,5.5 H 0 C 3.037,11 5.5,8.537 5.5,5.5 5.5,2.463 3.037,0 0,0"
             style="fill:#dd298a;fill-opacity:1;fill-rule:nonzero;stroke:none"
             id="path216" /></g><g
           id="g218"
           transform="translate(370.5283,207.4141)"><path
             d="M 0,0 H -5.781 V 47.692 H 0 c 0,0 9.539,-17.947 9.539,-23.909 C 9.539,17.822 0,0 0,0"
             style="fill:#312b2a;fill-opacity:1;fill-rule:nonzero;stroke:none"
             id="path220" /></g><g
           id="g222"
           transform="translate(369.8135,203.915)"><path
             d="m 0,0 c -0.913,0 -1.826,0.355 -2.513,1.063 -1.345,1.388 -1.311,3.604 0.076,4.95 5.801,5.626 9.064,13.167 9.187,21.235 0.123,8.067 -2.907,15.706 -8.534,21.506 -1.346,1.388 -1.312,3.604 0.076,4.95 1.387,1.344 3.603,1.312 4.949,-0.077 C 10.169,46.485 13.9,37.078 13.749,27.141 13.598,17.203 9.58,7.915 2.437,0.987 1.757,0.328 0.878,0 0,0"
             style="fill:#dd298a;fill-opacity:1;fill-rule:nonzero;stroke:none"
             id="path224" /></g><path
           d="M 368.104,207.289 H 158.806 v 47.817 h 209.298 z"
           style="fill:#f7e4b3;fill-opacity:1;fill-rule:nonzero;stroke:none"
           id="path226" /><g
           id="g228"
           transform="translate(370.542,251.606)"><path
             d="m 0,0 h -218.872 c -1.933,0 -3.5,1.567 -3.5,3.5 0,1.933 1.567,3.5 3.5,3.5 H 0 C 1.933,7 3.5,5.433 3.5,3.5 3.5,1.567 1.933,0 0,0"
             style="fill:#dd298a;fill-opacity:1;fill-rule:nonzero;stroke:none"
             id="path230" /></g><g
           id="g232"
           transform="translate(369.8135,203.7891)"><path
             d="m 0,0 h -218.144 c -1.933,0 -3.5,1.567 -3.5,3.5 0,1.933 1.567,3.5 3.5,3.5 H 0 C 1.933,7 3.5,5.433 3.5,3.5 3.5,1.567 1.933,0 0,0"
             style="fill:#dd298a;fill-opacity:1;fill-rule:nonzero;stroke:none"
             id="path234" /></g><g
           id="g236"
           transform="translate(333.5654,243.3262)"><path
             d="m 0,0 h -168.251 c -0.277,0 -0.5,0.224 -0.5,0.5 0,0.276 0.223,0.5 0.5,0.5 H 0 C 0.276,1 0.5,0.776 0.5,0.5 0.5,0.224 0.276,0 0,0"
             style="fill:#e8ab50;fill-opacity:1;fill-rule:nonzero;stroke:none"
             id="path238" /></g><g
           id="g240"
           transform="translate(342.2295,223.4971)"><path
             d="m 0,0 h -168.251 c -0.277,0 -0.5,0.224 -0.5,0.5 0,0.276 0.223,0.5 0.5,0.5 H 0 C 0.276,1 0.5,0.776 0.5,0.5 0.5,0.224 0.276,0 0,0"
             style="fill:#e8ab50;fill-opacity:1;fill-rule:nonzero;stroke:none"
             id="path242" /></g><g
           id="g244"
           transform="translate(339.8096,217.1338)"><path
             d="m 0,0 h -168.251 c -0.277,0 -0.5,0.224 -0.5,0.5 0,0.276 0.223,0.5 0.5,0.5 H 0 C 0.276,1 0.5,0.776 0.5,0.5 0.5,0.224 0.276,0 0,0"
             style="fill:#e8ab50;fill-opacity:1;fill-rule:nonzero;stroke:none"
             id="path246" /></g><g
           id="g248"
           transform="translate(348.0566,162.4062)"><path
             d="M 0,0 H -4.617 V 38.086 H 0 c 0,0 7.617,-14.333 7.617,-19.094 C 7.617,14.231 0,0 0,0"
             style="fill:#312b2a;fill-opacity:1;fill-rule:nonzero;stroke:none"
             id="path250" /></g><g
           id="g252"
           transform="translate(347.4854,158.9062)"><path
             d="m 0,0 c -0.913,0 -1.826,0.355 -2.513,1.063 -1.345,1.388 -1.311,3.604 0.076,4.95 9.275,8.996 9.502,23.861 0.506,33.136 -1.345,1.388 -1.311,3.604 0.077,4.95 1.386,1.345 3.602,1.312 4.949,-0.077 C 14.777,31.977 14.482,12.671 2.437,0.987 1.757,0.328 0.878,0 0,0"
             style="fill:#f8bc1f;fill-opacity:1;fill-rule:nonzero;stroke:none"
             id="path254" /></g><path
           d="M 345.89,162.306 H 178.978 v 38.187 H 345.89 Z"
           style="fill:#f7e4b3;fill-opacity:1;fill-rule:nonzero;stroke:none"
           id="path256" /><g
           id="g258"
           transform="translate(348.0674,196.9922)"><path
             d="m 0,0 h -174.789 c -1.932,0 -3.5,1.567 -3.5,3.5 0,1.933 1.568,3.5 3.5,3.5 H 0 C 1.933,7 3.5,5.433 3.5,3.5 3.5,1.567 1.933,0 0,0"
             style="fill:#f8bc1f;fill-opacity:1;fill-rule:nonzero;stroke:none"
             id="path260" /></g><g
           id="g262"
           transform="translate(347.4854,158.8066)"><path
             d="m 0,0 h -174.207 c -1.932,0 -3.5,1.567 -3.5,3.5 0,1.933 1.568,3.5 3.5,3.5 H 0 C 1.933,7 3.5,5.433 3.5,3.5 3.5,1.567 1.933,0 0,0"
             style="fill:#f8bc1f;fill-opacity:1;fill-rule:nonzero;stroke:none"
             id="path264" /></g><g
           id="g266"
           transform="translate(318.5381,190.9844)"><path
             d="m 0,0 h -134.363 c -0.276,0 -0.5,0.224 -0.5,0.5 0,0.276 0.224,0.5 0.5,0.5 H 0 C 0.276,1 0.5,0.776 0.5,0.5 0.5,0.224 0.276,0 0,0"
             style="fill:#e8ab50;fill-opacity:1;fill-rule:nonzero;stroke:none"
             id="path268" /></g><g
           id="g270"
           transform="translate(321.2305,184.791)"><path
             d="m 0,0 h -134.363 c -0.276,0 -0.5,0.224 -0.5,0.5 0,0.276 0.224,0.5 0.5,0.5 H 0 C 0.276,1 0.5,0.776 0.5,0.5 0.5,0.224 0.276,0 0,0"
             style="fill:#e8ab50;fill-opacity:1;fill-rule:nonzero;stroke:none"
             id="path272" /></g><g
           id="g274"
           transform="translate(340.1631,178.3291)"><path
             d="m 0,0 h -134.364 c -0.276,0 -0.5,0.224 -0.5,0.5 0,0.276 0.224,0.5 0.5,0.5 H 0 C 0.276,1 0.5,0.776 0.5,0.5 0.5,0.224 0.276,0 0,0"
             style="fill:#e8ab50;fill-opacity:1;fill-rule:nonzero;stroke:none"
             id="path276" /></g><g
           id="g278"
           transform="translate(248.3008,177.3018)"><path
             d="M 0,0 -7.801,10 -15.603,0 v 26.468 c 0,0.093 0.065,0.17 0.157,0.182 0.676,0.088 3.491,0.421 7.645,0.421 4.556,0 7.037,-0.326 7.65,-0.419 C -0.061,26.639 0,26.562 0,26.472 Z"
             style="fill:#4da82c;fill-opacity:1;fill-rule:nonzero;stroke:none"
             id="path280" /></g><g
           id="g282"
           transform="translate(145.1255,274.9053)"><path
             d="M 0,0 -7.942,-23.917 3.626,-24.954 Z"
             style="fill:#c79e6a;fill-opacity:1;fill-rule:nonzero;stroke:none"
             id="path284" /></g><g
           id="g286"
           transform="translate(145.1255,274.9053)"><path
             d="m 0,0 -2.031,-6.118 2.959,-0.26 z"
             style="fill:#1e120d;fill-opacity:1;fill-rule:nonzero;stroke:none"
             id="path288" /></g><g
           id="g290"
           transform="translate(148.7324,249.7344)"><path
             d="m 0,0 c 0.096,1.065 -0.69,2.005 -1.755,2.101 -1.065,0.095 -2.006,-0.69 -2.101,-1.755 0.095,1.065 -0.69,2.005 -1.755,2.1 -1.065,0.096 -2.006,-0.69 -2.101,-1.755 0.095,1.065 -0.691,2.006 -1.755,2.101 -1.065,0.096 -2.006,-0.69 -2.101,-1.755 l -12.228,-139.206 -0.022,0.002 -0.459,-5.116 c -0.174,-1.944 1.26,-3.66 3.204,-3.834 l 4.53,-0.406 c 1.943,-0.174 3.66,1.259 3.835,3.204 l 0.169,1.889 0.023,-0.002 z"
             style="fill:#83ccf0;fill-opacity:1;fill-rule:nonzero;stroke:none"
             id="path292" /></g><g
           id="g294"
           transform="translate(148.7324,249.7344)"><path
             d="m 0,0 c 0.096,1.065 -0.69,2.005 -1.755,2.101 -1.065,0.095 -2.006,-0.69 -2.101,-1.755 0.089,1.001 -11.909,-132.072 -13.26,-147.818 l 0.573,-0.051 c 1.943,-0.174 3.66,1.259 3.835,3.204 l 0.169,1.889 0.023,-0.002 z"
             style="fill:#50bceb;fill-opacity:1;fill-rule:nonzero;stroke:none"
             id="path296" /></g><g
           id="g298"
           transform="translate(127.1401,136.5518)"><path
             d="m 0,0 -2.133,-24.992 -0.458,-5.116 c -0.175,-1.944 1.259,-3.661 3.203,-3.834 l 4.531,-0.407 c 1.943,-0.173 3.66,1.26 3.834,3.204 l 0.169,1.89 2.412,28.279 z"
             style="fill:#312b2a;fill-opacity:1;fill-rule:nonzero;stroke:none"
             id="path300" /></g><g
           id="g302"
           transform="translate(127.127,136.5527)"><path
             d="M 0,0 -0.286,-3.122 11.295,-4.1 11.583,-0.978 Z"
             style="fill:#eceef0;fill-opacity:1;fill-rule:nonzero;stroke:none"
             id="path304" /></g><g
           id="g306"
           transform="translate(135.4941,155.6807)"><path
             d="m 0,0 -1.573,0.155 -0.978,-11.582 1.573,-0.156 z"
             style="fill:#312b2a;fill-opacity:1;fill-rule:nonzero;stroke:none"
             id="path308" /></g><g
           id="g310"
           transform="translate(133.2051,128.5742)"><path
             d="m 0,0 -1.574,0.144 -0.489,-5.791 1.574,-0.145 z"
             style="fill:#eceef0;fill-opacity:1;fill-rule:nonzero;stroke:none"
             id="path312" /></g><g
           id="g314"
           transform="translate(171.3027,160.5127)"><path
             d="m 0,0 c -5.638,-2.629 -13.064,-2.304 -19.048,-0.604 -5.984,1.699 -11.567,4.557 -17.404,6.708 -6.985,2.577 -14.092,4.488 -21.522,4.964 C -38.87,19.694 -14.582,15.057 0,0"
             style="fill:#96bd11;fill-opacity:1;fill-rule:nonzero;stroke:none"
             id="path316" /></g><g
           id="g318"
           transform="translate(136.8936,273.4624)"><path
             d="m 0,0 c -0.705,0 -1.409,0.152 -2.072,0.456 -1.207,0.554 -2.126,1.54 -2.585,2.777 l -8.974,24.146 c -1.086,2.922 0.408,6.182 3.33,7.267 1.409,0.527 2.944,0.466 4.32,-0.165 1.377,-0.629 2.423,-1.753 2.947,-3.164 L 2.543,16.31 C 2.673,15.961 2.496,15.573 2.147,15.444 1.799,15.313 1.411,15.492 1.282,15.841 l -5.578,15.008 c -0.399,1.073 -1.196,1.928 -2.246,2.409 -1.048,0.479 -2.216,0.524 -3.291,0.127 -2.225,-0.827 -3.363,-3.312 -2.536,-5.537 L -3.396,3.702 c 0.694,-1.867 2.779,-2.82 4.647,-2.129 1.868,0.695 2.823,2.78 2.129,4.648 l -6.606,17.772 c -0.561,1.51 -2.246,2.282 -3.756,1.722 -1.51,-0.562 -2.282,-2.247 -1.721,-3.757 l 4.111,-11.062 c 0.13,-0.349 -0.048,-0.737 -0.396,-0.866 -0.347,-0.131 -0.736,0.048 -0.866,0.397 l -4.11,11.062 c -0.82,2.205 0.307,4.667 2.513,5.488 2.206,0.822 4.668,-0.309 5.487,-2.515 L 4.642,6.689 C 5.594,4.125 4.284,1.264 1.72,0.312 1.161,0.104 0.58,0 0,0"
             style="fill:#c3c4ca;fill-opacity:1;fill-rule:nonzero;stroke:none"
             id="path320" /></g><g
           id="g322"
           transform="translate(375.5977,131.9639)"><path
             d="m 0,0 c -1.103,0 -2.183,0.325 -3.126,0.953 -1.26,0.839 -2.117,2.113 -2.413,3.588 l -3.149,15.698 c -0.074,0.365 0.163,0.72 0.527,0.793 0.363,0.074 0.719,-0.163 0.793,-0.527 L -4.219,4.807 C -3.993,3.685 -3.341,2.714 -2.38,2.074 -1.42,1.436 -0.271,1.208 0.85,1.432 3.178,1.898 4.692,4.173 4.226,6.501 l -5.068,25.256 c -0.392,1.954 -2.31,3.224 -4.254,2.832 -1.954,-0.392 -3.223,-2.301 -2.832,-4.254 l 3.73,-18.59 c 0.152,-0.762 0.595,-1.42 1.247,-1.854 0.652,-0.433 1.43,-0.591 2.191,-0.436 0.762,0.152 1.42,0.596 1.854,1.247 0.434,0.652 0.589,1.431 0.436,2.192 l -2.321,11.57 c -0.073,0.365 0.163,0.72 0.527,0.793 0.362,0.074 0.719,-0.163 0.793,-0.528 L 2.851,13.159 C 3.074,12.045 2.848,10.907 2.215,9.956 1.581,9.005 0.619,8.358 -0.494,8.135 -1.609,7.909 -2.745,8.137 -3.697,8.771 c -0.951,0.632 -1.598,1.595 -1.822,2.708 l -3.729,18.59 c -0.538,2.683 1.206,5.302 3.887,5.84 1.294,0.259 2.616,-0.002 3.721,-0.738 1.107,-0.736 1.859,-1.855 2.119,-3.149 L 5.546,6.766 C 6.158,3.71 4.171,0.725 1.115,0.111 0.744,0.037 0.37,0 0,0"
             style="fill:#c3c4ca;fill-opacity:1;fill-rule:nonzero;stroke:none"
             id="path324" /></g><g
           id="g326"
           transform="translate(338.2119,353.4224)"><path
             d="M 0,0 -26.997,-5.41 -141.1,-12.351 -173.804,0.13 -83.828,29.637 Z"
             style="fill:#143753;fill-opacity:1;fill-rule:nonzero;stroke:none"
             id="path328" /></g><g
           id="g330"
           transform="translate(338.8867,357.8516)"><path
             d="m 0,0 -83.149,27.314 c -0.05,0.027 -0.103,0.04 -0.155,0.062 -0.078,0.034 -0.154,0.069 -0.236,0.094 -0.07,0.022 -0.142,0.035 -0.214,0.05 -0.077,0.016 -0.154,0.034 -0.233,0.042 -0.077,0.008 -0.155,0.007 -0.232,0.008 -0.075,0 -0.148,0.003 -0.223,-0.004 -0.088,-0.008 -0.174,-0.027 -0.26,-0.045 -0.052,-0.01 -0.103,-0.012 -0.154,-0.026 L -175.101,0.312 c -1.25,-0.344 -1.984,-1.636 -1.64,-2.886 0.286,-1.041 1.232,-1.725 2.262,-1.725 0.206,0 0.416,0.028 0.624,0.085 L -84.5,22.725 -2.168,-4.164 c 0.347,-0.18 0.717,-0.266 1.082,-0.266 0.848,0 1.665,0.46 2.084,1.264 C 1.597,-2.016 1.149,-0.599 0,0"
             style="fill:#f8bc1f;fill-opacity:1;fill-rule:nonzero;stroke:none"
             id="path332" /></g><g
           id="g334"
           transform="translate(240.9766,375.7832)"><path
             d="M 0,0 V 4.908 L -3.521,3.653 v -4.912 z"
             style="fill:#f5ac00;fill-opacity:1;fill-rule:nonzero;stroke:none"
             id="path336" /></g><g
           id="g338"
           transform="translate(311.2148,304.7988)"><path
             d="M 0,0 C 0,0 -34.152,-3.687 -56.831,-3.687 -83.514,-3.687 -114.103,0 -114.103,0 v 48.365 c 0,0 25.599,9.416 57.272,9.416 C -26.884,57.781 0,48.365 0,48.365 Z"
             style="fill:#21557f;fill-opacity:1;fill-rule:nonzero;stroke:none"
             id="path340" /></g><g
           id="g342"
           transform="translate(223.9067,302.3232)"><path
             d="m 0,0 c -16.553,1.091 -26.795,2.476 -26.795,2.476 v 48.365 c 0,0 10.976,4.894 27.447,8.274 z"
             style="fill:#143753;fill-opacity:1;fill-rule:nonzero;stroke:none"
             id="path344" /></g><g
           id="g346"
           transform="translate(254.4873,300.2896)"><path
             d="m 0,0 c -37,0 -52.957,2.609 -57.375,3.513 v 4.16 C -55.16,7.172 -39.808,4.063 0,4.063 c 20.755,0 51.441,3.101 56.728,3.651 V 3.628 C 50.348,2.97 20.447,0 0,0"
             style="fill:#f5ac00;fill-opacity:1;fill-rule:nonzero;stroke:none"
             id="path348" /></g><g
           id="g350"
           transform="translate(254.3838,299.1123)"><path
             d="m 0,0 c -43.119,0 -57.206,3.6 -57.784,3.753 -1.068,0.283 -1.704,1.378 -1.422,2.445 0.283,1.068 1.378,1.703 2.446,1.422 C -56.625,7.585 -42.414,4 0,4 22.31,4 56.276,7.639 56.616,7.675 57.709,7.791 58.701,7 58.819,5.901 58.938,4.803 58.144,3.816 57.046,3.698 56.703,3.661 22.525,0 0,0"
             style="fill:#f8bc1f;fill-opacity:1;fill-rule:nonzero;stroke:none"
             id="path352" /></g><g
           id="g354"
           transform="translate(240.4087,357.3984)"><path
             d="m 0,0 c -0.351,1.028 -0.749,2.194 -0.749,2.823 0,0.002 -0.001,0.005 -0.001,0.007 v 19.808 c 0,0.972 -0.788,1.76 -1.761,1.76 -0.972,0 -1.76,-0.788 -1.76,-1.76 V 2.823 c 0,-0.029 0.007,-0.054 0.008,-0.082 -0.021,-0.721 -0.332,-2.253 -0.611,-3.617 -0.335,-1.641 -0.651,-3.189 -0.651,-4.052 0,-0.487 0.394,-0.881 0.88,-0.881 0.486,0 0.881,0.394 0.881,0.881 0,0.643 0.287,2.092 0.561,3.435 0,-0.01 10e-4,-0.019 10e-4,-0.029 0.092,-1.72 0.187,-3.498 0.187,-4.249 0,-0.486 0.394,-0.88 0.88,-0.88 0.486,0 0.881,0.394 0.881,0.88 0,0.797 -0.093,2.52 -0.19,4.343 -0.004,0.079 -0.009,0.159 -0.013,0.24 0.283,-0.849 0.54,-1.698 0.54,-2.203 0,-0.486 0.394,-0.88 0.88,-0.88 0.486,0 0.88,0.394 0.88,0.88 0,0.92 -0.409,2.12 -0.843,3.391"
             style="fill:#f8bc1f;fill-opacity:1;fill-rule:nonzero;stroke:none"
             id="path356" /></g><g
           id="g358"
           transform="translate(254.1631,323.5884)"><path
             d="m 0,0 c -0.276,0 -0.5,0.224 -0.5,0.5 v 15.195 c 0,0.276 0.224,0.5 0.5,0.5 0.276,0 0.5,-0.224 0.5,-0.5 V 0.5 C 0.5,0.224 0.276,0 0,0"
             style="fill:#143753;fill-opacity:1;fill-rule:nonzero;stroke:none"
             id="path360" /></g><g
           id="g362"
           transform="translate(127.4683,352.8481)"><path
             d="m 0,0 c -13.116,0 -20.271,-2.781 -20.271,-4.21 0,-1.43 7.155,-4.211 20.271,-4.211 13.116,0 20.271,2.781 20.271,4.211 C 20.271,-2.781 13.116,0 0,0 m 0,-10.712 c -10.866,0 -22.562,2.034 -22.562,6.502 0,4.466 11.696,6.501 22.562,6.501 10.866,0 22.562,-2.035 22.562,-6.501 0,-4.468 -11.696,-6.502 -22.562,-6.502"
             style="fill:#f8bc1f;fill-opacity:1;fill-rule:nonzero;stroke:none"
             id="path364" /></g><g
           id="g366"
           transform="translate(117.5381,366.2339)"><path
             d="m 0,0 c -0.095,0 -0.163,-0.016 -0.205,-0.041 -1.238,-0.714 -0.07,-8.302 6.488,-19.661 2.815,-4.875 5.927,-9.175 8.762,-12.107 3.162,-3.269 4.724,-3.515 5.021,-3.343 1.238,0.715 0.069,8.302 -6.489,19.661 C 10.762,-10.616 7.65,-6.316 4.815,-3.384 2.104,-0.58 0.57,0 0,0 m 19.871,-37.485 c -1.676,0 -3.844,1.366 -6.472,4.084 -2.962,3.062 -6.193,7.521 -9.099,12.554 -5.433,9.41 -9.519,20.556 -5.651,22.79 1.788,1.034 4.417,-0.224 7.812,-3.735 2.962,-3.062 6.194,-7.521 9.1,-12.554 5.433,-9.41 9.519,-20.556 5.65,-22.79 -0.404,-0.233 -0.851,-0.349 -1.34,-0.349"
             style="fill:#f8bc1f;fill-opacity:1;fill-rule:nonzero;stroke:none"
             id="path368" /></g><g
           id="g370"
           transform="translate(137.3071,366.2622)"><path
             d="m 0,0 c -1.713,0 -7.349,-4.89 -13.486,-15.52 -2.814,-4.875 -4.982,-9.719 -6.103,-13.641 -1.251,-4.373 -0.683,-5.847 -0.385,-6.019 0.299,-0.173 1.858,0.073 5.02,3.343 2.835,2.932 5.947,7.232 8.762,12.107 C 0.366,-8.372 1.535,-0.784 0.297,-0.069 0.217,-0.023 0.118,0 0,0 m -19.779,-37.514 c -0.489,0 -0.936,0.117 -1.341,0.35 -1.788,1.033 -2.015,3.937 -0.672,8.633 1.171,4.096 3.417,9.124 6.323,14.157 5.433,9.411 13.042,18.526 16.911,16.289 3.869,-2.234 -0.217,-13.38 -5.65,-22.79 -2.906,-5.033 -6.138,-9.492 -9.1,-12.555 -2.627,-2.716 -4.796,-4.084 -6.471,-4.084"
             style="fill:#f8bc1f;fill-opacity:1;fill-rule:nonzero;stroke:none"
             id="path372" /></g><g
           id="g374"
           transform="translate(129.5215,348.6377)"><path
             d="m 0,0 c 0,-1.134 -0.919,-2.053 -2.053,-2.053 -1.134,0 -2.053,0.919 -2.053,2.053 0,1.134 0.919,2.053 2.053,2.053 C -0.919,2.053 0,1.134 0,0"
             style="fill:#dd298a;fill-opacity:1;fill-rule:nonzero;stroke:none"
             id="path376" /></g><g
           id="g378"
           transform="translate(439.0762,228.4697)"><path
             d="m 0,0 -2.444,1.225 c 1.369,1.181 2.555,2.591 3.507,4.221 L 3.725,4.113 C 2.735,2.473 1.463,1.094 0,0 m -11.266,-2.711 c 2.473,0.357 4.752,1.177 6.749,2.413 l 2.217,-1.11 c -2.744,-1.351 -5.882,-1.842 -8.966,-1.303 m -11.317,9.757 c -0.214,0.645 -0.365,1.3 -0.488,1.956 l 2.228,-1.116 c 0.205,-2.347 0.911,-4.671 2.112,-6.872 -1.749,1.638 -3.076,3.694 -3.852,6.032 m 5.082,16.246 2.452,-1.229 c -1.369,-1.181 -2.552,-2.594 -3.505,-4.224 l -2.674,1.34 c 0.99,1.64 2.265,3.018 3.727,4.113 m 8.778,2.931 c 0.811,0 1.625,-0.092 2.437,-0.231 -2.447,-0.361 -4.705,-1.18 -6.688,-2.409 l -2.232,1.12 c 2.007,0.989 4.227,1.52 6.483,1.52 M 5.569,14.29 3.353,15.401 C 3.149,17.739 2.448,20.055 1.256,22.246 3.529,20.099 5.011,17.294 5.569,14.29 m -12.779,-2.136 2.395,4.78 5.971,-2.993 C 1.146,12.122 0.777,10.298 0.04,8.521 Z m -4.447,-8.873 4.636,-2.323 c -1.967,-0.955 -4.194,-1.493 -6.586,-1.567 z m -2.047,1.026 -1.951,-3.893 c -1.377,1.962 -2.28,4.069 -2.692,6.22 z m 7.868,15.699 -4.685,2.348 c 1.967,0.959 4.205,1.488 6.638,1.55 z m 4.001,2.874 c 1.41,-1.987 2.326,-4.098 2.735,-6.25 l -4.689,2.35 z m -10.995,-1.929 5.969,-2.991 -2.396,-4.78 -7.251,3.633 c 0.985,1.655 2.226,3.041 3.678,4.138 m -4.702,-6.184 7.249,-3.634 -2.395,-4.779 -5.933,2.973 c 0,1.838 0.354,3.672 1.079,5.44 m -5.788,-3.079 c 0.004,1.853 0.362,3.693 1.075,5.44 l 2.665,-1.335 c -0.735,-1.738 -1.16,-3.531 -1.287,-5.335 z m 18.618,-9.332 -5.93,2.972 2.396,4.779 7.249,-3.632 C -1.969,4.836 -3.229,3.454 -4.702,2.356 M 4.75,6.16 2.087,7.495 c 0.734,1.738 1.161,3.531 1.288,5.334 L 5.817,11.605 C 5.815,9.778 5.472,7.934 4.75,6.16 m -5.937,20.566 c -4.03,2.021 -8.603,2.351 -12.879,0.928 -4.277,-1.421 -7.745,-4.422 -9.763,-8.452 -2.02,-4.028 -2.349,-8.602 -0.928,-12.879 1.421,-4.276 4.422,-7.743 8.451,-9.761 2.382,-1.195 4.954,-1.798 7.543,-1.798 1.79,0 3.588,0.289 5.336,0.87 4.277,1.421 7.744,4.422 9.763,8.451 4.168,8.315 0.793,18.473 -7.523,22.641"
             style="fill:#83ccf0;fill-opacity:1;fill-rule:nonzero;stroke:none"
             id="path380" /></g><g
           id="g382"
           transform="translate(401.3525,116.7539)"><path
             d="M 0,0 4.625,0.49 C 4.979,0.528 5.279,0.235 5.252,-0.119 L 4.28,-12.995 C 4.232,-13.626 3.346,-13.72 3.166,-13.113 L -0.486,-0.728 C -0.587,-0.387 -0.354,-0.038 0,0"
             style="fill:#d8d9dd;fill-opacity:1;fill-rule:nonzero;stroke:none"
             id="path384" /></g><g
           id="g386"
           transform="translate(389.4121,249.8208)"><path
             d="m 0,0 c -1.024,-0.109 -1.947,0.631 -2.062,1.657 l -1.565,14.028 c -0.115,1.029 0.627,1.957 1.656,2.071 0.003,0.001 0.006,0.001 0.01,0.001 1.025,0.109 1.947,-0.631 2.062,-1.656 L 1.666,2.073 C 1.781,1.043 1.04,0.116 0.011,0.001 0.007,0.001 0.004,0 0,0"
             style="fill:#312b2a;fill-opacity:1;fill-rule:nonzero;stroke:none"
             id="path388" /></g><g
           id="g390"
           transform="translate(403.7363,116.5908)"><path
             d="m 0,0 v 0 c -3.858,-0.422 -7.36,2.391 -7.781,6.249 l -14.582,134.017 c -0.422,3.858 13.609,5.389 14.03,1.531 L 6.249,7.781 C 6.671,3.923 3.858,0.421 0,0"
             style="fill:#d8d9dd;fill-opacity:1;fill-rule:nonzero;stroke:none"
             id="path392" /></g><g
           id="g394"
           transform="translate(403.7363,116.5908)"><path
             d="m 0,0 v 0 l -15.664,143.925 c 3.508,0.383 7.121,-0.199 7.331,-2.128 L 6.249,7.781 C 6.671,3.923 3.858,0.421 0,0"
             style="fill:#eceef0;fill-opacity:1;fill-rule:nonzero;stroke:none"
             id="path396" /></g><g
           id="g398"
           transform="translate(387.1875,203.5469)"><path
             d="m 0,0 c -0.736,-0.078 -1.398,0.452 -1.48,1.189 -0.083,0.74 0.45,1.407 1.188,1.489 l 14.027,1.565 c 0.003,0 0.005,10e-4 0.007,10e-4 0.737,0.078 1.4,-0.453 1.482,-1.19 0.083,-0.739 -0.451,-1.406 -1.19,-1.488 L 0.007,0 Z"
             style="fill:#312b2a;fill-opacity:1;fill-rule:nonzero;stroke:none"
             id="path400" /></g><g
           id="g402"
           transform="translate(402.4131,222.0283)"><path
             d="m 0,0 c -0.736,-0.078 -1.398,0.452 -1.48,1.187 l -2.04,18.094 c -0.083,0.74 0.449,1.407 1.188,1.49 0.004,0 0.006,0 0.009,10e-4 0.735,0.078 1.397,-0.452 1.48,-1.188 L 1.196,1.49 C 1.279,0.751 0.748,0.084 0.009,0.001 0.005,0 0.003,0 0,0"
             style="fill:#312b2a;fill-opacity:1;fill-rule:nonzero;stroke:none"
             id="path404" /></g><g
           id="g406"
           transform="translate(396.4131,249.104)"><path
             d="m 0,0 c -0.735,-0.078 -1.397,0.452 -1.48,1.187 -0.084,0.739 0.446,1.407 1.185,1.491 l 5.472,0.624 c 0.003,0 0.007,0 0.01,10e-4 C 5.922,3.381 6.584,2.852 6.667,2.116 6.751,1.377 6.221,0.709 5.481,0.625 L 0.01,0.001 C 0.007,0.001 0.003,0 0,0"
             style="fill:#312b2a;fill-opacity:1;fill-rule:nonzero;stroke:none"
             id="path408" /></g><g
           id="g410"
           transform="translate(382.4512,246.9189)"><path
             d="m 0,0 c -1.107,-0.117 -2.102,0.684 -2.223,1.79 -0.12,1.11 0.681,2.107 1.789,2.229 l 14.032,1.532 c 0.003,0 0.005,0 0.006,10e-4 1.108,0.117 2.101,-0.684 2.222,-1.79 0.121,-1.11 -0.68,-2.108 -1.789,-2.229 L 0.006,0.001 C 0.003,0.001 0.001,0.001 0,0"
             style="fill:#312b2a;fill-opacity:1;fill-rule:nonzero;stroke:none"
             id="path412" /></g><g
           id="g414"
           transform="translate(400.373,240.1211)"><path
             d="m 0,0 c -0.273,-0.028 -0.559,0.024 -0.814,0.174 -0.645,0.371 -0.866,1.195 -0.494,1.84 l 2.137,3.7 C 1.202,6.357 2.026,6.579 2.67,6.206 3.313,5.834 3.535,5.011 3.162,4.366 L 1.025,0.666 C 0.801,0.278 0.414,0.044 0,0"
             style="fill:#312b2a;fill-opacity:1;fill-rule:nonzero;stroke:none"
             id="path416" /></g><g
           id="g418"
           transform="translate(402.5107,243.8213)"><path
             d="M 0,0 C -0.739,-0.078 -1.402,0.458 -1.481,1.197 L -2.108,7.104 C -2.187,7.843 -1.65,8.507 -0.911,8.585 -0.171,8.664 0.492,8.127 0.57,7.388 L 1.197,1.481 C 1.276,0.742 0.739,0.078 0,0"
             style="fill:#312b2a;fill-opacity:1;fill-rule:nonzero;stroke:none"
             id="path420" /></g><g
           id="g422"
           transform="translate(408.1348,128.6934)"><path
             d="m 0,0 -11.295,-1.199 c -0.863,-0.092 -1.278,-0.912 -1.186,-1.777 1.871,-17.64 7.558,-17.417 7.558,-17.417 l 2.721,0.289 c 0,0 5.607,0.975 3.735,18.616 C 1.441,-0.624 0.863,0.091 0,0"
             style="fill:#83ccf0;fill-opacity:1;fill-rule:nonzero;stroke:none"
             id="path424" /></g><g
           id="g426"
           transform="translate(395.3779,126.3584)"><path
             d="m 0,0 c -0.513,-0.055 -0.974,0.315 -1.031,0.827 -0.057,0.516 0.313,0.98 0.828,1.036 L 13.823,3.43 h 0.006 C 14.342,3.484 14.803,3.114 14.859,2.602 14.917,2.087 14.546,1.623 14.032,1.565 L 0.005,0 Z"
             style="fill:#312b2a;fill-opacity:1;fill-rule:nonzero;stroke:none"
             id="path428" /></g><g
           id="g430"
           transform="translate(405.1211,103.2617)"><path
             d="m 0,0 c -0.121,-0.013 -0.247,0.021 -0.34,0.097 -0.101,0.074 -0.162,0.189 -0.176,0.32 -0.012,0.121 0.022,0.247 0.106,0.342 0.149,0.184 0.457,0.226 0.653,0.069 C 0.294,0.785 0.337,0.743 0.36,0.689 0.395,0.636 0.411,0.572 0.417,0.516 0.431,0.386 0.396,0.269 0.312,0.166 0.279,0.125 0.228,0.081 0.175,0.047 0.121,0.022 0.065,0.007 0,0"
             style="fill:#312b2a;fill-opacity:1;fill-rule:nonzero;stroke:none"
             id="path432" /></g><g
           id="g434"
           transform="translate(379.627,106.1338)"><path
             d="m 0,0 -24.516,5.839 -0.03,-11.615 z"
             style="fill:#c79e6a;fill-opacity:1;fill-rule:nonzero;stroke:none"
             id="path436" /></g><g
           id="g438"
           transform="translate(379.627,106.1338)"><path
             d="m 0,0 -6.271,1.493 -0.003,-2.97 z"
             style="fill:#1e120d;fill-opacity:1;fill-rule:nonzero;stroke:none"
             id="path440" /></g><g
           id="g442"
           transform="translate(354.8633,100.3584)"><path
             d="M 0,0 C 1.069,-0.003 1.938,0.861 1.941,1.931 1.944,3 1.079,3.869 0.011,3.871 1.079,3.869 1.948,4.733 1.951,5.803 1.954,6.871 1.09,7.74 0.021,7.743 1.09,7.74 1.958,8.604 1.961,9.674 1.964,10.743 1.1,11.612 0.03,11.615 l -159.742,0.113 10e-4,0.022 -5.137,0.014 c -1.951,0.005 -3.537,-1.574 -3.542,-3.525 l -0.012,-4.548 c -0.005,-1.952 1.573,-3.538 3.524,-3.543 l 1.898,-0.004 V 0.121 Z"
             style="fill:#4da82c;fill-opacity:1;fill-rule:nonzero;stroke:none"
             id="path444" /></g><g
           id="g446"
           transform="translate(354.8633,100.3584)"><path
             d="M 0,0 C 1.069,-0.003 1.938,0.861 1.941,1.931 1.944,3 1.079,3.869 0.011,3.871 1.016,3.869 -152.596,4.285 -168.4,4.267 l -0.002,-0.576 c -0.005,-1.952 1.573,-3.538 3.524,-3.543 l 1.898,-0.004 V 0.121 Z"
             style="fill:#96bd11;fill-opacity:1;fill-rule:nonzero;stroke:none"
             id="path448" /></g><g
           id="g450"
           transform="translate(220.2354,112.0566)"><path
             d="m 0,0 -25.083,-0.041 -5.137,0.013 c -1.951,0.005 -3.537,-1.573 -3.542,-3.524 l -0.011,-4.549 c -0.006,-1.951 1.572,-3.537 3.523,-3.542 l 1.898,-0.004 28.382,0.048 z"
             style="fill:#312b2a;fill-opacity:1;fill-rule:nonzero;stroke:none"
             id="path452" /></g><g
           id="g454"
           transform="translate(220.2354,112.0703)"><path
             d="m 0,0 -3.135,0.015 0.03,-11.623 3.135,-0.016 z"
             style="fill:#eceef0;fill-opacity:1;fill-rule:nonzero;stroke:none"
             id="path456" /></g><g
           id="g458"
           transform="translate(240.0161,105.3926)"><path
             d="m 0,0 0.019,1.58 -11.623,-0.029 -0.02,-1.58 z"
             style="fill:#312b2a;fill-opacity:1;fill-rule:nonzero;stroke:none"
             id="path460" /></g><g
           id="g462"
           transform="translate(212.813,105.3232)"><path
             d="M 0,0 0.007,1.58 -5.804,1.565 -5.812,-0.015 Z"
             style="fill:#eceef0;fill-opacity:1;fill-rule:nonzero;stroke:none"
             id="path464" /></g><g
           id="g466"><g
             id="g468" /><g
             id="g480"><g
               clip-path="url(#clipPath472)"
               opacity="0.399994"
               id="g478"><g
                 transform="translate(331.29,384.6743)"
                 id="g476"><path
                   d="m 0,0 c 3.892,-14.182 -4.45,-28.833 -18.633,-32.725 -14.181,-3.892 -28.833,4.45 -32.724,18.632 -3.892,14.182 4.45,28.833 18.631,32.725 C -18.544,22.524 -3.892,14.182 0,0"
                   style="fill:#83ccf0;fill-opacity:1;fill-rule:nonzero;stroke:none"
                   id="path474" /></g></g></g></g><g
           id="g482"
           transform="translate(317.3496,398.2441)"><path
             d="m 0,0 c -5.283,3.008 -11.709,4.004 -18.02,2.273 -12.622,-3.463 -20.072,-16.549 -16.609,-29.171 3.466,-12.622 16.549,-20.07 29.172,-16.609 12.622,3.464 20.072,16.549 16.608,29.172 C 9.419,-8.025 5.282,-3.007 0,0 m -26.338,-46.259 c -6.57,3.74 -11.715,9.982 -13.869,17.83 -4.308,15.698 4.959,31.972 20.656,36.281 15.698,4.307 31.973,-4.959 36.28,-20.657 4.308,-15.697 -4.958,-31.972 -20.656,-36.28 -7.848,-2.154 -15.842,-0.915 -22.411,2.826"
             style="fill:#1e120d;fill-opacity:1;fill-rule:nonzero;stroke:none"
             id="path484" /></g><g
           id="g486"
           transform="translate(289.5908,388.2588)"><path
             d="M 0,0 C -0.037,0.021 -0.074,0.043 -0.11,0.069 -0.767,0.526 -0.929,1.426 -0.475,2.082 0.732,3.818 2.132,5.417 3.688,6.835 4.277,7.374 5.192,7.33 5.73,6.742 6.269,6.151 6.227,5.237 5.637,4.699 4.24,3.426 2.984,1.99 1.902,0.433 1.471,-0.188 0.643,-0.366 0,0"
             style="fill:#f7f7f8;fill-opacity:1;fill-rule:nonzero;stroke:none"
             id="path488" /></g><g
           id="g490"
           transform="translate(286.2568,381.6719)"><path
             d="M 0,0 C -0.592,0.337 -0.881,1.057 -0.651,1.725 -0.265,2.859 0.201,3.979 0.73,5.052 1.084,5.77 1.952,6.063 2.667,5.71 3.356,5.354 3.679,4.49 3.325,3.773 2.85,2.811 2.434,1.806 2.085,0.788 1.827,0.032 1.004,-0.371 0.248,-0.112 0.161,-0.082 0.077,-0.044 0,0"
             style="fill:#f7f7f8;fill-opacity:1;fill-rule:nonzero;stroke:none"
             id="path492" /></g><g
           id="g494"
           transform="translate(322.7598,304.0776)"><path
             d="m 0,0 c -0.965,0.549 -1.721,1.466 -2.037,2.622 l -11.866,42.706 c -0.635,2.31 0.725,4.699 3.036,5.332 2.311,0.634 4.697,-0.724 5.331,-3.035 L 6.33,4.918 C 6.965,2.608 5.604,0.22 3.294,-0.414 2.139,-0.73 0.964,-0.549 0,0"
             style="fill:#1e120d;fill-opacity:1;fill-rule:nonzero;stroke:none"
             id="path496" /></g><g
           id="g498"
           transform="translate(308.9316,343.3364)"><path
             d="M 0,0 C -0.482,0.275 -0.859,0.733 -1.019,1.312 -1.335,2.467 -0.656,3.66 0.5,3.977 L 8.866,6.273 C 10.022,6.59 11.215,5.911 11.532,4.755 11.85,3.6 11.17,2.407 10.015,2.089 L 1.647,-0.207 C 1.069,-0.365 0.482,-0.274 0,0"
             style="fill:#f8bc1f;fill-opacity:1;fill-rule:nonzero;stroke:none"
             id="path500" /></g><g
           id="g502"
           transform="translate(254.1631,410.9067)"><path
             d="m 0,0 c -0.828,0 -1.5,0.671 -1.5,1.5 v 12.016 c 0,0.828 0.672,1.5 1.5,1.5 0.828,0 1.5,-0.672 1.5,-1.5 V 1.5 C 1.5,0.671 0.828,0 0,0"
             style="fill:#f8bc1f;fill-opacity:1;fill-rule:nonzero;stroke:none"
             id="path504" /></g><g
           id="g506"
           transform="translate(229.2388,406.2754)"><path
             d="m 0,0 c -0.384,0 -0.768,0.146 -1.061,0.439 l -8.497,8.497 c -0.586,0.585 -0.586,1.535 0,2.121 0.586,0.586 1.536,0.586 2.121,0 L 1.061,2.561 C 1.646,1.975 1.646,1.025 1.061,0.439 0.768,0.146 0.384,0 0,0"
             style="fill:#f8bc1f;fill-opacity:1;fill-rule:nonzero;stroke:none"
             id="path508" /></g><g
           id="g510"
           transform="translate(279.0879,406.2754)"><path
             d="m 0,0 c -0.384,0 -0.768,0.146 -1.061,0.439 -0.585,0.586 -0.585,1.536 0,2.122 l 8.497,8.496 c 0.585,0.586 1.535,0.586 2.121,0 0.586,-0.585 0.586,-1.535 0,-2.121 L 1.061,0.439 C 0.768,0.146 0.384,0 0,0"
             style="fill:#f8bc1f;fill-opacity:1;fill-rule:nonzero;stroke:none"
             id="path512" /></g></g></g></g></svg>
