<?xml version="1.0" encoding="UTF-8" standalone="no"?>
<svg
   xmlns:dc="http://purl.org/dc/elements/1.1/"
   xmlns:cc="http://creativecommons.org/ns#"
   xmlns:rdf="http://www.w3.org/1999/02/22-rdf-syntax-ns#"
   xmlns:svg="http://www.w3.org/2000/svg"
   xmlns="http://www.w3.org/2000/svg"
   version="1.1"
   id="svg2"
   xml:space="preserve"
   width="3037.3333"
   height="2666.6667"
   viewBox="0 0 3037.3333 2666.6667"><metadata
     id="metadata8"><rdf:RDF><cc:Work
         rdf:about=""><dc:format>image/svg+xml</dc:format><dc:type
           rdf:resource="http://purl.org/dc/dcmitype/StillImage" /><dc:title></dc:title></cc:Work></rdf:RDF></metadata><defs
     id="defs6" /><g
     id="g10"
     transform="matrix(1.3333333,0,0,-1.3333333,0,2666.6667)"><g
       id="g14"
       transform="scale(0.139755)"><path
         d="M 16300,0 H 0 V 14310.8 H 16300 V 0"
         style="fill:#ffffff;fill-opacity:1;fill-rule:nonzero;stroke:none"
         id="path16" /></g><g
       id="g18"
       transform="scale(0.106498)"><path
         d="m 7582.59,12578.3 c -360.24,-680.9 -1204.25,-940.9 -1885.13,-580.6 v 0 c -680.89,360.2 -940.83,1204.2 -580.58,1885.1 360.24,680.9 1204.25,940.8 1885.13,580.6 h 0.01 c 680.88,-360.2 940.83,-1204.2 580.57,-1885.1 z m 1518.51,-256 c -142.43,94.7 -288.27,184.5 -428.72,282 -25.65,17.8 -48.5,63.7 -45.85,94.3 17.05,197.4 45.47,393.9 61.17,591.4 4.58,57.5 17.39,87.6 72.37,109.6 193.61,77.2 385.15,159.6 577.37,240.3 31.18,13 61.9,27.2 115.61,51 -94.02,295.2 -187.02,587.1 -282.33,886.4 -247.82,-50.9 -473.85,-93.6 -697.74,-145.4 -78.95,-18.3 -122.11,-9.4 -173.5,63.5 -105.02,149.2 -230.77,283.5 -343.74,427.3 -17.33,22.1 -25,66.7 -15.19,92.6 74.87,197.8 149.54,396.1 236.24,588.8 41.62,92.5 20.23,142 -62.69,184.3 -31.87,16.3 -57.87,44 -86.55,66.6 -143.09,75.7 -286.19,151.4 -429.29,227.1 -17.95,3.5 -37.02,4.1 -53.67,10.8 -174.45,70 -140.91,68.7 -238.73,-77.1 -119.19,-177.8 -235.38,-357.5 -337.37,-512.8 -266.68,23.2 -515.9,44.8 -773.31,67.1 -98.95,235.7 -202.34,482 -306.42,729.9 -313.63,-44.3 -601.46,-145.1 -883.59,-281.3 50.56,-243.6 99.26,-481.3 149.7,-718.7 9.05,-42.6 6.62,-68.4 -34.97,-99.9 -162.83,-123.5 -322.74,-251.4 -476.67,-385.8 -44.38,-38.7 -73.08,-39.1 -121.16,-19.2 -198.46,81.9 -398.82,159.2 -597.64,240.2 -49.39,20.2 -81.26,18.5 -117.43,-29.9 -162.15,-217.2 -272.08,-459.7 -361.89,-713.2 -17.77,-50.1 6.45,-71.6 44.41,-95.9 175.63,-112.5 348.53,-229.3 524.91,-340.5 50.83,-32.1 66.46,-59.9 56.8,-125.3 -33.43,-226.2 -53.68,-454.3 -80.98,-700 -214.25,-89.9 -457.36,-192 -700.4,-294 43.87,-319.6 131.62,-615.1 275.24,-896.4 265.6,56.4 524,111.4 758.04,161.1 147.3,-167.5 280.18,-326.8 422.86,-476.7 53.91,-56.7 63.7,-99.6 32.87,-170.3 -82.14,-188.2 -156.94,-379.7 -232.74,-570.6 -14.98,-37.7 -44.68,-81.7 14.27,-112.3 239.79,-124.6 479.45,-249.4 719.28,-373.8 50.98,-26.5 82.92,-9.2 113.34,38.9 113.18,178.7 234.25,352.6 344.36,533.3 42.47,69.6 88.65,72.6 160.73,63.4 178.01,-22.7 357.44,-42 536.57,-44.9 77.22,-1.2 105.64,-21.1 132.16,-89.6 85.21,-220 179.07,-436.7 267.69,-650.1 191.34,1.3 711.43,168.1 898.48,286.1 -50.76,234.5 -99.65,472.1 -155.14,708.2 -13.89,59.1 3.5,84.6 48.52,120.5 145.23,115.9 282.26,242 426.36,359.3 24.23,19.8 73.66,30.9 101.55,20.2 177.18,-68 352.02,-142.2 526.79,-216.4 97.7,-41.4 136.97,-58.5 174.2,-33.2 l 403.03,761.7 c 0.55,61.9 -41.98,90.7 -157.21,167.4"
         style="fill:#cae1f9;fill-opacity:1;fill-rule:nonzero;stroke:none"
         id="path20" /></g><path
       d="m 1489.18,1330.94 c -3.47,8.34 -7.14,16.81 -10.47,25.42 -1.04,2.67 -2.15,3.45 -5.17,3.5 -7,0.11 -14.01,0.87 -20.97,1.75 -0.69,0.09 -1.32,0.15 -1.9,0.15 -1.79,0 -3.13,-0.57 -4.39,-2.63 -4.3,-7.06 -9.03,-13.85 -13.46,-20.84 -0.81,-1.29 -1.65,-2.01 -2.74,-2.01 -0.5,0 -1.06,0.16 -1.69,0.48 -9.38,4.87 -18.74,9.75 -28.12,14.62 -2.3,1.2 -1.14,2.91 -0.56,4.39 2.97,7.46 5.89,14.95 9.1,22.31 1.21,2.76 0.82,4.44 -1.28,6.65 -5.58,5.87 -10.78,12.09 -16.54,18.64 -9.14,-1.94 -19.25,-4.09 -29.63,-6.3 -5.61,11 -9.04,22.55 -10.76,35.05 9.5,3.98 19.01,7.97 27.38,11.49 1.07,9.61 1.86,18.52 3.17,27.37 0.38,2.55 -0.24,3.64 -2.22,4.89 -6.9,4.35 -13.66,8.92 -20.52,13.31 -1.49,0.95 -2.43,1.8 -1.74,3.76 3.51,9.9 7.81,19.38 14.15,27.88 0.88,1.17 1.69,1.64 2.64,1.64 0.58,0 1.22,-0.17 1.95,-0.47 7.77,-3.17 15.6,-6.19 23.36,-9.4 0.78,-0.32 1.43,-0.5 2.04,-0.5 0.88,0 1.68,0.37 2.7,1.26 6.02,5.25 12.27,10.25 18.63,15.08 1.63,1.23 1.72,2.24 1.37,3.91 -1.97,9.27 -3.87,18.57 -5.85,28.09 11.03,5.32 22.28,9.26 34.54,11 4.07,-9.69 8.11,-19.32 11.98,-28.54 10.06,-0.87 19.81,-1.71 30.23,-2.62 3.99,6.07 8.53,13.1 13.19,20.05 2.27,3.38 2.73,4.77 4.16,4.77 0.98,0 2.4,-0.65 5.17,-1.76 0.66,-0.26 1.4,-0.29 2.1,-0.42 5.6,-2.96 11.19,-5.92 16.79,-8.88 1.12,-0.88 2.13,-1.97 3.38,-2.6 3.24,-1.66 4.08,-3.59 2.45,-7.21 -3.39,-7.53 -6.31,-15.28 -9.24,-23.01 -0.38,-1.02 -0.08,-2.77 0.6,-3.63 4.41,-5.62 9.33,-10.87 13.44,-16.7 1.44,-2.05 2.71,-2.8 4.46,-2.8 0.69,0 1.45,0.11 2.32,0.31 8.75,2.03 17.59,3.7 27.28,5.69 3.72,-11.7 7.36,-23.11 11.03,-34.65 -2.1,-0.93 -3.3,-1.49 -4.52,-2 -7.51,-3.15 -15,-6.37 -22.57,-9.39 -2.15,-0.86 -2.65,-2.04 -2.83,-4.29 -0.61,-7.72 -1.72,-15.4 -2.39,-23.11 -0.1,-1.2 0.79,-3 1.79,-3.69 5.5,-3.81 11.2,-7.32 16.76,-11.03 4.51,-2.99 6.17,-4.12 6.15,-6.54 l -15.76,-29.78 c -0.46,-0.32 -0.94,-0.46 -1.49,-0.46 -1.18,0 -2.72,0.66 -5.32,1.76 -6.83,2.9 -13.66,5.8 -20.59,8.46 -0.29,0.11 -0.64,0.16 -1.02,0.16 -1.03,0 -2.26,-0.38 -2.95,-0.95 -5.63,-4.59 -10.99,-9.52 -16.67,-14.05 -1.76,-1.4 -2.44,-2.4 -1.89,-4.71 2.16,-9.23 4.08,-18.52 6.06,-27.68 -7.31,-4.62 -27.64,-11.14 -35.12,-11.19 m -18.91,175.03 c -19.55,0 -38.46,-10.55 -48.24,-29.04 v 0 c -14.09,-26.62 -3.93,-59.61 22.69,-73.7 8.13,-4.3 16.86,-6.34 25.46,-6.34 19.55,0 38.46,10.55 48.24,29.04 14.08,26.62 3.92,59.61 -22.7,73.7 -8.13,4.3 -16.85,6.34 -25.45,6.34"
       style="fill:#ebf3fe;fill-opacity:1;fill-rule:nonzero;stroke:none;stroke-width:0.1"
       id="path22" /><path
       d="m 613.376,383.94 c 0,0 -284.939,140.49 -333.942,213.77 -49.002,73.28 23.031,77.43 23.031,77.43 0,0 -127.155,123.66 -109.266,175.73 17.89,52.06 83.76,4.31 83.76,4.31 0,0 -81.761,182 -43.21,200.3 71.806,34.08 172.539,-161.75 172.539,-161.75 0,0 -21.648,85.07 27.798,82.31 74.57,-4.17 71.489,-196.6 71.489,-196.6 0,0 8.422,73.78 53.367,49.81 80.641,-43 54.434,-445.31 54.434,-445.31"
       style="fill:#3c8f7c;fill-opacity:1;fill-rule:nonzero;stroke:none;stroke-width:0.1"
       id="path24" /><path
       d="m 575.167,859.02 c -35.096,19.47 -70.052,-37.45 -70.052,-37.45 0,0 3.541,150.3 -71.029,154.47 -49.446,2.76 -27.798,-82.31 -27.798,-82.31 0,0 -100.733,195.83 -172.539,161.75 L 613.704,387.06 c 2.684,46.68 30.99,433.38 -38.537,471.96"
       style="fill:#50bfa5;fill-opacity:1;fill-rule:nonzero;stroke:none;stroke-width:0.1"
       id="path26" /><path
       d="m 606.012,382.2 c 0,0 -233.042,-28.95 -293.382,-3.15 -60.339,25.79 -17.097,57.65 -17.097,57.65 0,0 -129.563,25.47 -139.559,65.21 -9.996,39.74 49.772,36.57 49.772,36.57 0,0 -124.2343,80.45 -107.623,107.53 30.94,50.43 173.342,-30.78 173.342,-30.78 0,0 -48.069,44.27 -16.105,62.63 48.206,27.7 124.478,-93.57 124.478,-93.57 0,0 -4.737,29.89 33.035,33.2 67.773,5.95 193.139,-235.29 193.139,-235.29"
       style="fill:#3c8f7c;fill-opacity:1;fill-rule:nonzero;stroke:none;stroke-width:0.1"
       id="path28" /><path
       d="m 414.402,639.21 c -37.772,-3.31 -34.564,-54.92 -34.564,-54.92 0,0 -77.65,143.76 -125.857,116.06 -31.964,-18.37 5.853,-78.7 5.853,-78.7 0,0 -130.771,74.79 -161.711,24.36 L 606.72,383.49 c -17.293,30.2 -129.013,261.28 -192.318,255.72"
       style="fill:#50bfa5;fill-opacity:1;fill-rule:nonzero;stroke:none;stroke-width:0.1"
       id="path30" /><g
       id="g32"
       transform="scale(0.128208)"><path
         d="m 15178.8,5635.69 97.6,235.94 c 75.8,173.55 269.6,256.38 433,185.09 411.7,-179.71 590.6,-679.91 399.7,-1117.17 l -139.5,-319.79 c -61.2,-140.01 -39.9,-294.13 42.6,-402.78 74.9,-98.67 87.1,-235.87 35.2,-354.82 l -73.7,-168.55 c -79.6,-182.52 -234.6,-317.61 -418.4,-373.38 -107.5,-32.6 -202.5,-113.25 -252.7,-228.3 l -104.2,-238.67 c -115.2,-263.87 -409.9,-389.84 -658.3,-281.42 l -141.7,61.85 c -248.3,108.42 -356.4,410.19 -241.2,674.06 186.3,315.5 171.5,550.98 105.4,710.72 -97,234.77 -95.9,504.96 9.1,745.51 l 14.7,33.69 c 110.8,253.89 324.8,443.34 579.6,524.54 112.6,35.8 229.8,123.32 312.8,313.48"
         style="fill:#50bfa5;fill-opacity:1;fill-rule:nonzero;stroke:none"
         id="path34" /></g><path
       d="m 1121.48,124.98 c -33.82,43.85 -219.313,278.81 -340.259,317.96 -133.503,43.22 -7.677,-128.43 -7.677,-128.43 0,0 -236.831,258.97 -323.74,235.62 -79.667,-21.4 0,-181.92 0,-181.92 0,0 -89.728,88.89 -198.541,88.89 -105.901,0 73.986,-315.25 83.691,-332.12 h 786.526"
       style="fill:#96d9c9;fill-opacity:1;fill-rule:nonzero;stroke:none;stroke-width:0.1"
       id="path36" /><g
       id="g38"
       transform="scale(0.130653)"><path
         d="m 16231,8155.96 c 0,0 -261.3,-337.38 -415.3,-469.78 -153.8,-132.37 -300.4,-259.12 -496.6,-680.32 -196.2,-421.18 -190.5,-469.4 -242.6,-577.86 -52.2,-108.45 -325.9,-533.24 -346.5,-617.97 -20.8,-84.81 -467.7,-490.76 -606,-697.26 -138.3,-206.51 -365.2,-494.67 -395,-661.3 l 40.4,0.85 c 0,0 120.3,376.72 474.9,703.23 354.6,326.51 333.8,408.64 680.4,538.14 346.5,129.5 668.4,635.04 668.4,635.04 0,0 444.5,527.12 502.5,841.31 58.1,314.27 204.4,575.8 135.4,985.92"
         style="fill:#256653;fill-opacity:1;fill-rule:nonzero;stroke:none"
         id="path40" /></g><g
       id="g42"
       transform="scale(0.127926)"><path
         d="m 16300,9019.68 c 0,0 -69.2,-251.01 -186,-382.54 -116.7,-131.53 -208.4,-206.59 -261.1,-366.01 -52.7,-159.41 -201.7,-567.36 -477.3,-719.4 -275.6,-151.97 -447.6,-759.43 -664.3,-904.91 -216.6,-145.47 -270.3,-273.75 -312.5,-599.87 -42,-326.13 -35.9,-793.04 -421.6,-1311 l -23.6,156.58 c 0,0 290.4,432.43 311.4,720.26 20.9,287.82 -33.2,742.69 69.2,931.01 102.3,188.31 -95,275.62 100,551.1 195.1,275.47 168.6,393.12 399.1,616.92 0,0 20.2,8.28 116.5,220.58 96.3,212.31 549.9,537.01 747.5,637.84 197.7,100.82 487.9,268.62 602.7,449.44"
         style="fill:#256653;fill-opacity:1;fill-rule:nonzero;stroke:none"
         id="path44" /></g><g
       id="g46"
       transform="scale(0.122185)"><path
         d="m 16055.5,8293.77 c 0,0 -289.7,-306.6 -345.8,-534.29 -56,-227.68 -74.5,-419.2 -252,-707.61 -177.6,-288.34 -15.5,-534.44 -115.7,-693.14 -100.1,-158.77 -152.3,-362.07 -186.5,-517.57 -34.2,-155.42 -392.8,-612.85 -489.6,-864.18 -96.7,-251.35 -50.4,-262.97 -50.4,-262.97 0,0 119.4,333.76 200.8,434.34 81.4,100.59 339.7,452.68 413.9,594.93 74.3,142.16 202.9,214.59 353.9,449.56 151,234.89 331.2,420.51 405.7,786.35 74.7,365.84 310.2,715.47 65.7,1314.58"
         style="fill:#3c8f7c;fill-opacity:1;fill-rule:nonzero;stroke:none"
         id="path48" /></g><g
       id="g50"
       transform="scale(0.128907)"><path
         d="m 14036.2,4663.43 c 0,0 190.9,405.56 587.1,358.32 396.2,-47.17 605.3,-176.33 950.7,72.06 345.4,248.4 618.9,706.33 726,771.26 0,0 -120.7,102.47 -398.3,-57.64 -277.5,-160.12 -475.1,-284.55 -635.9,-377.95 -160.9,-93.4 -249.2,12.49 -407.6,-36.92 -132.7,-41.43 -329.8,-204.41 -420.4,-292.77 -29.4,-28.71 -62.2,-53.68 -98,-73.93 -32.5,-18.54 -71.4,-41.35 -97,-58.88 -51.3,-35.06 -236.8,-298.12 -236.8,-298.12 l 30.2,-5.43"
         style="fill:#3c8f7c;fill-opacity:1;fill-rule:nonzero;stroke:none"
         id="path52" /></g><g
       id="g54"
       transform="scale(0.112709)"><path
         d="m 15917.9,5456.02 c 0,0 294.5,560.82 258.2,877.22 -36.4,316.39 -312.6,608.56 -256.8,789.02 55.8,180.47 380.7,627.73 295.7,1036.74 0,0 -141.5,-314.34 -222.6,-372.73 -81.1,-58.38 -589.5,-251.62 -602.3,-660.02 -12.8,-408.31 393.3,-598.97 472,-738.36 78.5,-139.3 220.6,-172.21 203.8,-248.87 -16.9,-76.57 -53.8,-360.75 -164.7,-623.91 l 16.7,-59.09"
         style="fill:#3c8f7c;fill-opacity:1;fill-rule:nonzero;stroke:none"
         id="path56" /></g><g
       id="g58"
       transform="scale(0.120352)"><path
         d="m 15153.4,5446.6 342,542.41 c 0,0 230.7,446.61 392.5,826.16 161.8,379.55 412.1,1604.89 412.1,1604.89 0,0 -294.1,-311.27 -351.1,-542.43 -56.9,-231.15 -75.6,-425.58 -255.9,-718.39 -180.3,-292.72 -15.7,-542.57 -117.4,-703.69 -101.6,-161.19 -154.6,-367.58 -189.3,-525.45 -34.8,-157.79 -398.8,-622.18 -497.1,-877.34 -53.8,-139.76 -64,-206.4 -62.2,-238.22 20.8,238.3 326.4,632.06 326.4,632.06"
         style="fill:#327f6b;fill-opacity:1;fill-rule:nonzero;stroke:none"
         id="path60" /></g><g
       id="g62"
       transform="scale(0.128907)"><path
         d="m 15166,5194.2 c -178.5,5.66 -328.4,52.75 -565.9,-50.89 -237.6,-103.64 -394.2,-236.99 -394.2,-236.99 0,0 -128.8,-141.5 -186.4,-218.53 -8.5,-11.87 -13.5,-18.93 -13.5,-18.93 l 30.2,-5.43 c 0,0 190.9,405.56 587.1,358.32 396.2,-47.17 605.3,-176.33 950.7,72.06 345.4,248.4 618.9,706.33 726,771.26 0,0 -342.8,-158.26 -568.6,-316.43 -225.8,-158.1 -386.8,-360.03 -565.4,-354.44"
         style="fill:#327f6b;fill-opacity:1;fill-rule:nonzero;stroke:none"
         id="path64" /></g><g
       id="g66"
       transform="scale(0.112121)"><path
         d="m 16076.2,7827.09 c -81.5,-58.69 -592.5,-252.94 -605.4,-663.48 -12.9,-410.45 395.4,-602.12 474.4,-742.24 78.9,-140.02 221.8,-173.11 204.9,-250.17 -17,-76.97 -54.1,-362.64 -165.6,-627.18 l 7.4,-25.96 c 48.1,102.21 118.4,258.47 157.8,380.31 64.1,198 50.8,289.15 23.9,467.89 -26.8,178.64 -352.6,605.59 -413,804.31 -60.3,198.71 303.7,422.67 402.2,548.78 98.6,126.11 137.2,482.42 137.2,482.42 0,0 -142.3,-315.99 -223.8,-374.68"
         style="fill:#327f6b;fill-opacity:1;fill-rule:nonzero;stroke:none"
         id="path68" /></g><g
       id="g70"
       transform="scale(0.132884)"><path
         d="m 8954.35,940.52 c 254.51,329.99 1650.35,2098.15 2560.55,2392.76 1004.7,325.25 57.7,-966.48 57.7,-966.48 0,0 1782.4,1948.84 2436.3,1773.13 599.5,-161.05 0,-1369.02 0,-1369.02 0,0 675.3,668.93 1494.2,668.93 796.9,0 -556.8,-2372.37 -629.8,-2499.32 H 8954.35"
         style="fill:#96d9c9;fill-opacity:1;fill-rule:nonzero;stroke:none"
         id="path72" /></g><path
       d="M 594.754,126.32 C 486.625,273.36 355.168,409.27 198.857,527.45 c -1.56,1.18 -3.666,-1.54 -2.095,-2.74 C 345.011,410.75 476.168,276.18 586.533,124.12 l 8.221,2.2"
       style="fill:#256653;fill-opacity:1;fill-rule:nonzero;stroke:none;stroke-width:0.1"
       id="path74" /><path
       d="m 286.086,395.82 c 3.613,2.56 12.977,12.29 25.473,15.33 11.831,4 26.794,1.32 26.277,0.99 0.311,-0.71 -9.855,10.85 -25.728,14.2 -15.248,4.46 -36.204,0.72 -43.052,-5.33 -15.542,-10.52 -16.786,-28.39 -9.083,-31.7 7.654,-3.53 17.88,1.34 26.113,6.51"
       style="fill:#256653;fill-opacity:1;fill-rule:nonzero;stroke:none;stroke-width:0.1"
       id="path76" /><path
       d="m 222.423,451.91 c 3.614,2.56 12.978,12.28 25.473,15.33 11.832,4 26.794,1.32 26.278,0.99 0.31,-0.71 -9.855,10.84 -25.728,14.2 -15.249,4.45 -36.204,0.71 -43.052,-5.34 -15.543,-10.51 -16.787,-28.38 -9.084,-31.7 7.655,-3.52 17.881,1.34 26.113,6.52"
       style="fill:#256653;fill-opacity:1;fill-rule:nonzero;stroke:none;stroke-width:0.1"
       id="path78" /><path
       d="m 393.237,420.73 c -3.386,-2.11 -15.434,-6.35 -20.97,-15.98 -6.422,-8.67 -6.33,-22.72 -5.885,-22.41 0.7,-0.55 -9.703,12.89 -10.352,28.01 -1.925,15.01 5.902,31.7 13.586,35.23 14.031,9.28 33.238,3.22 35.341,-4.79 2.337,-8.05 -4.712,-14.98 -11.72,-20.06"
       style="fill:#256653;fill-opacity:1;fill-rule:nonzero;stroke:none;stroke-width:0.1"
       id="path80" /><path
       d="M 409.716,621.17 C 506.479,470.04 577.1,302.16 617.478,123.81 l 6.633,1.78 c -40.209,174.62 -110.357,342.2 -206.959,493.16 -22.451,35.08 -46.694,76.71 -88.731,90.39 -0.811,0.27 -1.118,-0.97 -0.345,-1.26 38.395,-14.47 60.634,-53.91 81.64,-86.71"
       style="fill:#256653;fill-opacity:1;fill-rule:nonzero;stroke:none;stroke-width:0.1"
       id="path82" /><path
       d="m 400.873,714.89 c -2.491,-3.67 -12.026,-13.22 -14.828,-25.77 -3.763,-11.91 -0.792,-26.82 -0.472,-26.3 0.719,-0.29 -11.033,9.64 -14.705,25.45 -4.753,15.15 -1.426,36.18 4.486,43.15 10.21,15.74 28.05,17.34 31.514,9.7 3.677,-7.58 -0.986,-17.9 -5.995,-26.23"
       style="fill:#256653;fill-opacity:1;fill-rule:nonzero;stroke:none;stroke-width:0.1"
       id="path84" /><path
       d="m 377.724,579.99 c 3.612,2.56 12.977,12.29 25.472,15.34 11.832,3.99 26.794,1.31 26.278,0.99 0.311,-0.72 -9.855,10.84 -25.728,14.2 -15.248,4.45 -36.204,0.71 -43.052,-5.34 -15.543,-10.52 -16.786,-28.39 -9.084,-31.7 7.656,-3.53 17.881,1.34 26.114,6.51"
       style="fill:#256653;fill-opacity:1;fill-rule:nonzero;stroke:none;stroke-width:0.1"
       id="path86" /><path
       d="m 412.658,520.87 c 3.613,2.56 12.978,12.29 25.473,15.33 11.831,4 26.793,1.32 26.278,0.99 0.31,-0.71 -9.856,10.84 -25.729,14.2 -15.248,4.46 -36.203,0.72 -43.052,-5.33 -15.542,-10.52 -16.786,-28.39 -9.083,-31.7 7.655,-3.53 17.88,1.34 26.113,6.51"
       style="fill:#256653;fill-opacity:1;fill-rule:nonzero;stroke:none;stroke-width:0.1"
       id="path88" /><path
       d="m 449.753,647.99 c -3.038,-3.23 -13.96,-11.16 -18.705,-23.11 -5.593,-11.17 -5.009,-26.36 -4.612,-25.89 0.663,-0.41 -9.375,11.26 -10.51,27.44 -2.303,15.72 4.297,35.96 11.233,41.9 12.566,13.94 30.434,12.71 32.651,4.62 2.435,-8.07 -3.797,-17.52 -10.057,-24.96"
       style="fill:#256653;fill-opacity:1;fill-rule:nonzero;stroke:none;stroke-width:0.1"
       id="path90" /><path
       d="m 501.124,580.94 c -4.324,-2.29 -19.427,-6.45 -27.023,-17.75 -8.599,-10.06 -9.691,-27.26 -9.12,-26.91 0.81,-0.74 -10.765,16.59 -10.265,35.14 -1.07,18.53 9.935,38.28 19.637,41.94 17.961,10.16 40.939,1.1 42.825,-8.88 2.171,-10.05 -7.046,-17.93 -16.054,-23.54"
       style="fill:#256653;fill-opacity:1;fill-rule:nonzero;stroke:none;stroke-width:0.1"
       id="path92" /><path
       d="m 555.191,479.39 c -4.648,-1.53 -20.235,-3.09 -29.624,-12.96 -10.167,-8.47 -14.136,-25.24 -13.514,-24.99 0.673,-0.86 -7.822,18.17 -4.209,36.37 2.062,18.45 16.231,36.06 26.41,38.04 19.413,6.99 40.54,-5.81 40.722,-15.96 0.449,-10.27 -9.961,-16.48 -19.785,-20.5"
       style="fill:#256653;fill-opacity:1;fill-rule:nonzero;stroke:none;stroke-width:0.1"
       id="path94" /><path
       d="m 311.906,691.11 c 2.026,1.67 7.14,7.84 14.398,10.18 6.824,2.89 15.792,1.96 15.502,1.74 0.215,-0.41 -6.305,5.98 -15.842,7.28 -9.214,1.96 -21.447,-1.17 -25.234,-5.04 -8.734,-6.91 -8.688,-17.53 -3.986,-19.15 4.682,-1.76 10.519,1.57 15.162,4.99"
       style="fill:#256653;fill-opacity:1;fill-rule:nonzero;stroke:none;stroke-width:0.1"
       id="path96" /><path
       d="m 331.306,734.26 c -0.09,-2.62 -1.847,-10.43 0.723,-17.62 1.884,-7.16 8.094,-13.7 8.089,-13.33 0.454,0.07 -8.587,1.34 -15.433,8.1 -7.184,6.1 -12.172,17.7 -11.414,23.06 0.136,11.14 8.578,17.59 12.734,14.85 4.245,-2.64 5.175,-9.29 5.301,-15.06"
       style="fill:#256653;fill-opacity:1;fill-rule:nonzero;stroke:none;stroke-width:0.1"
       id="path98" /><path
       d="m 176.577,509.04 c 2.025,1.67 7.139,7.83 14.398,10.18 6.824,2.88 15.792,1.95 15.501,1.74 0.215,-0.41 -6.304,5.98 -15.841,7.27 -9.215,1.97 -21.447,-1.16 -25.235,-5.04 -8.733,-6.9 -8.687,-17.53 -3.986,-19.15 4.683,-1.75 10.519,1.58 15.163,5"
       style="fill:#256653;fill-opacity:1;fill-rule:nonzero;stroke:none;stroke-width:0.1"
       id="path100" /><path
       d="m 199.979,552.56 c -0.304,-2.61 -2.695,-10.25 -0.722,-17.62 1.29,-7.29 6.945,-14.32 6.969,-13.95 0.459,0.04 -8.448,2.04 -14.717,9.34 -6.66,6.66 -10.682,18.63 -9.486,23.92 1.047,11.08 9.989,16.82 13.907,13.75 4.015,-2.98 4.396,-9.68 4.049,-15.44"
       style="fill:#256653;fill-opacity:1;fill-rule:nonzero;stroke:none;stroke-width:0.1"
       id="path102" /><path
       d="m 220.798,262.23 c 98.806,-10.83 190.828,-54.44 279.415,-96.97 59.738,-28.68 56.725,-36.85 68.894,-41.12 1.971,-0.7 3.942,1.45 2.983,3.34 -4.682,9.28 -16.954,15.55 -25.494,20.88 -9.94,6.21 -20.325,11.7 -30.863,16.81 -22.548,10.95 -45.684,20.8 -68.669,30.79 -46.758,20.31 -94.274,39.42 -143.673,52.36 -27.08,7.09 -54.638,12.2 -82.528,14.72 -0.519,0.04 -0.58,-0.75 -0.065,-0.81"
       style="fill:#256653;fill-opacity:1;fill-rule:nonzero;stroke:none;stroke-width:0.1"
       id="path104" /><path
       d="m 301.392,294.15 c -0.643,-4.05 -4.866,-15.82 -2.261,-27.45 1.544,-11.47 9.915,-22.79 9.977,-22.22 0.719,0.03 -13.05,3.72 -22.363,15.52 -9.964,10.83 -15.47,29.76 -13.264,37.94 2.346,17.22 16.669,25.6 22.585,20.56 6.074,-4.9 6.236,-15.39 5.326,-24.35"
       style="fill:#256653;fill-opacity:1;fill-rule:nonzero;stroke:none;stroke-width:0.1"
       id="path106" /><path
       d="m 388.437,262.98 c -0.643,-4.05 -4.866,-15.82 -2.262,-27.45 1.545,-11.46 9.916,-22.78 9.978,-22.22 0.719,0.03 -13.05,3.73 -22.363,15.52 -9.964,10.83 -15.471,29.77 -13.264,37.94 2.346,17.23 16.668,25.6 22.584,20.57 6.075,-4.91 6.237,-15.4 5.327,-24.36"
       style="fill:#256653;fill-opacity:1;fill-rule:nonzero;stroke:none;stroke-width:0.1"
       id="path108" /><path
       d="m 476.882,223.56 c -0.643,-4.05 -4.866,-15.82 -2.261,-27.45 1.544,-11.47 9.916,-22.79 9.977,-22.22 0.719,0.03 -13.051,3.72 -22.363,15.52 -9.964,10.83 -15.47,29.76 -13.263,37.94 2.345,17.22 16.668,25.6 22.584,20.57 6.074,-4.91 6.236,-15.4 5.326,-24.36"
       style="fill:#256653;fill-opacity:1;fill-rule:nonzero;stroke:none;stroke-width:0.1"
       id="path110" /><path
       d="m 275.406,212.82 c 1.789,3.35 5.246,14.38 13.654,21.49 7.537,7.59 20.024,11.26 19.755,10.81 0.511,-0.43 -11.697,4.54 -25.144,1.04 -13.386,-2.42 -28.011,-13.3 -30.946,-20.55 -7.886,-14 -2.005,-28.17 5.164,-27.76 7.214,0.22 13.188,7.86 17.517,14.97"
       style="fill:#256653;fill-opacity:1;fill-rule:nonzero;stroke:none;stroke-width:0.1"
       id="path112" /><path
       d="m 365.947,180.78 c 1.788,3.34 5.245,14.37 13.654,21.49 7.536,7.58 20.024,11.25 19.755,10.8 0.511,-0.42 -11.697,4.54 -25.144,1.05 -13.386,-2.42 -28.012,-13.3 -30.946,-20.56 -7.886,-14 -2.006,-28.17 5.163,-27.76 7.214,0.23 13.188,7.86 17.518,14.98"
       style="fill:#256653;fill-opacity:1;fill-rule:nonzero;stroke:none;stroke-width:0.1"
       id="path114" /><path
       d="m 206.453,245.81 c 1.565,1.87 5.193,8.34 11.412,11.69 5.735,3.77 14.062,4.43 13.833,4.18 0.264,-0.34 -6.746,4.39 -15.651,3.98 -8.725,0.24 -19.347,-4.66 -22.148,-8.82 -6.801,-7.75 -4.981,-17.43 -0.425,-18.12 4.56,-0.81 9.32,3.2 12.979,7.09"
       style="fill:#256653;fill-opacity:1;fill-rule:nonzero;stroke:none;stroke-width:0.1"
       id="path116" /><path
       d="m 216.901,288.38 c 0.359,-2.41 0.066,-9.82 3.61,-15.93 2.916,-6.22 9.669,-11.13 9.603,-10.8 0.401,0.15 -8.048,-0.22 -15.418,4.8 -7.566,4.35 -14.054,14.08 -14.261,19.1 -1.741,10.16 4.871,17.45 9.115,15.66 4.31,-1.69 6.271,-7.6 7.351,-12.83"
       style="fill:#256653;fill-opacity:1;fill-rule:nonzero;stroke:none;stroke-width:0.1"
       id="path118" /><g
       id="g120"
       transform="scale(0.113723)"><path
         d="m 16300,7242.58 c 0,-3397.46 -2754.2,-6151.6 -6151.7,-6151.6 -3397.4,0 -6151.58,2754.14 -6151.58,6151.6 0,3397.52 2754.18,6151.62 6151.58,6151.62 3397.5,0 6151.7,-2754.1 6151.7,-6151.62"
         style="fill:#b75742;fill-opacity:1;fill-rule:nonzero;stroke:none"
         id="path122" /></g><path
       d="m 1792.0709,823.65008 c 0,-352.32994 -285.6319,-637.95965 -637.9662,-637.95965 -352.33658,0 -637.96189,285.62971 -637.96189,637.95965 0,352.34422 285.62531,637.96512 637.96189,637.96512 352.3343,0 637.9662,-285.6209 637.9662,-637.96512"
       style="fill:#f26a3c;fill-opacity:1;fill-rule:nonzero;stroke:none;stroke-width:0.109943"
       id="path126" /><path
       d="m 1690.5708,823.65024 c 0,-296.28031 -240.1751,-536.46997 -536.471,-536.46997 -296.27825,0 -536.46376,240.18966 -536.46376,536.46997 0,296.28546 240.18551,536.47106 536.46376,536.47106 296.2959,0 536.471,-240.1856 536.471,-536.47106"
       style="fill:#ffccaa;fill-opacity:0.8270452;fill-rule:nonzero;stroke:none;stroke-width:0.103716"
       id="path130" /><path
       d="m 1557.36,823.65 c 0,-222.71 -180.54,-403.26 -403.26,-403.26 -222.708,0 -403.253,180.55 -403.253,403.26 0,222.72 180.545,403.26 403.253,403.26 222.72,0 403.26,-180.54 403.26,-403.26"
       style="fill:#f26a3c;fill-opacity:1;fill-rule:nonzero;stroke:none;stroke-width:0.1"
       id="path132" /><path
       d="m 1440.46,823.65 c 0,-158.15 -128.2,-286.36 -286.36,-286.36 -158.147,0 -286.354,128.21 -286.354,286.36 0,158.15 128.207,286.36 286.354,286.36 158.16,0 286.36,-128.21 286.36,-286.36"
       style="fill:#ffccaa;fill-opacity:0.8270452;fill-rule:nonzero;stroke:none;stroke-width:0.1"
       id="path134" /><path
       d="m 1227.13,823.65 c 0,-40.33 -32.7,-73.02 -73.03,-73.02 -40.32,0 -73.02,32.69 -73.02,73.02 0,40.33 32.7,73.02 73.02,73.02 40.33,0 73.03,-32.69 73.03,-73.02"
       style="fill:#b75742;fill-opacity:1;fill-rule:nonzero;stroke:none;stroke-width:0.1"
       id="path136" /><g
       id="g138"
       transform="scale(0.108003)"><path
         d="m 14837,10982.2 -24,439.3 1487,1163 -77.7,-636 -1457.3,-1139.8 72,173.5"
         style="fill:#184655;fill-opacity:1;fill-rule:nonzero;stroke:none"
         id="path140" /></g><g
       id="g142"
       transform="scale(0.111677)"><path
         d="m 14455.2,10477.8 406.7,-124.8 1438.1,1124.8 -615.1,75.2 -1409.4,-1102.4 179.7,27.2"
         style="fill:#12353d;fill-opacity:1;fill-rule:nonzero;stroke:none"
         id="path144" /></g><path
       d="m 1148.63,817.6 v 0 c 3.65,-4.67 10.39,-5.5 15.06,-1.84 l 452.48,353.91 -13.23,16.9 -452.47,-353.91 c -4.67,-3.65 -5.5,-10.39 -1.84,-15.06"
       style="fill:#184655;fill-opacity:1;fill-rule:nonzero;stroke:none;stroke-width:0.1"
       id="path146" /><g
       id="g148"
       transform="scale(0.112352)"><path
         d="m 16232.5,6107.62 c 0,-40.41 15.2,-73.08 33.8,-73.08 18.6,0 33.7,32.67 33.7,73.08 0,40.32 -15.1,73.07 -33.7,73.07 -18.6,0 -33.8,-32.75 -33.8,-73.07"
         style="fill:#f7a491;fill-opacity:1;fill-rule:nonzero;stroke:none"
         id="path150" /></g><g
       id="g152"
       transform="scale(0.11129)"><path
         d="m 16066.8,1381.7 c 8.9,63.53 11.7,161.11 10.7,273.7 h 222.5 c -23.1,-159.49 -41.2,-283.58 -41.2,-283.58 l 5.5,-50.41 0.1,-148.8 h -486.6 c 0,0 103.2,46.28 247.7,137.75 10.7,6.74 35.3,28.3 41.3,71.34"
         style="fill:#f7a491;fill-opacity:1;fill-rule:nonzero;stroke:none"
         id="path154" /></g><g
       id="g156"
       transform="scale(0.117566)"><path
         d="m 16107.3,1343.33 -61.2,175.47 h 160.3 c 8.4,-112.61 11.4,-188.66 11.4,-188.66 l 40.8,-115.34 41.4,-137.11 c 0,0 -136.3,-35.13 -207.9,4.34 l 7.9,136.52 7.3,124.78"
         style="fill:#f7a491;fill-opacity:1;fill-rule:nonzero;stroke:none"
         id="path158" /></g><g
       id="g160"
       transform="scale(0.115056)"><path
         d="m 15609,5269.27 c 56.8,77.7 291.2,302.63 317.3,302.2 75.8,-1.3 325,-1.39 373.7,-26.16 l -2.3,-428.23 c -8,-35.98 -180,-595.89 -170,-718.52 l -1.2,-1.13 c -144.2,-139.24 -371.5,-128.29 -503.4,24.25 0,0 0.6,169.83 -19.7,324.8 -31.8,242.66 -135.5,329.92 5.6,522.79"
         style="fill:#f7cc7f;fill-opacity:1;fill-rule:nonzero;stroke:none"
         id="path162" /></g><g
       id="g164"
       transform="scale(0.113244)"><path
         d="m 16258.7,5905.56 c 0,0 -6.7,-160.54 7.7,-221.38 14.4,-60.93 33.6,-65.52 -90.1,-83.98 -48.7,-7.33 -95.6,-18.19 -95.6,-18.19 0,0 12.8,89.45 14.7,127.16 3.1,62.08 -14.3,253.96 -14.3,253.96 l 177.6,-57.57"
         style="fill:#f7a491;fill-opacity:1;fill-rule:nonzero;stroke:none"
         id="path166" /></g><g
       id="g168"
       transform="scale(0.1129)"><path
         d="m 16213.6,5843.4 c -25.5,-13.81 -49.4,-21.96 -71.3,-25.33 -4.3,75.99 -12.2,163.24 -12.2,163.24 l 169.9,-55.09 c -19.7,-32.95 -47.7,-61.91 -86.4,-82.82"
         style="fill:#f26a3c;fill-opacity:1;fill-rule:nonzero;stroke:none"
         id="path170" /></g><g
       id="g172"
       transform="scale(0.117579)"><path
         d="m 16098.4,1218.93 c 62.9,-27.98 130.7,-11.14 157.9,-2.13 l 9.1,-24.41 34.6,-115.66 c 0,0 -138,-34.28 -209.6,5.19 l 8,137.01"
         style="fill:#e25a44;fill-opacity:1;fill-rule:nonzero;stroke:none"
         id="path174" /></g><g
       id="g176"
       transform="scale(0.111153)"><path
         d="M 16289.6,1136.99 H 15783 c -18.7,1.71 -23.3,17.1 -16.9,26.45 13.4,19.44 72.6,33.74 138.9,64.69 116.6,-12.24 361.1,68.2 379.5,95.19 10.6,-54.08 15.5,-183.99 5.1,-186.33"
         style="fill:#e25a44;fill-opacity:1;fill-rule:nonzero;stroke:none"
         id="path178" /></g><g
       id="g180"
       transform="scale(0.117218)"><path
         d="m 15483.1,4309.42 281.6,-2002.86 256.3,-923.41 h 279 c 0,0 -64.7,744 -203.5,1007.53 0,0 -60.6,706.29 -121.2,1138.22 -9,64.58 35.8,232.13 24.1,275.47 -90,332.89 -169.1,513.06 -169.1,513.06 l -347.2,-8.01"
         style="fill:#355389;fill-opacity:1;fill-rule:nonzero;stroke:none"
         id="path182" /></g><g
       id="g184"
       transform="scale(0.113965)"><path
         d="m 16104.1,3541.7 -67.1,-791.3 c 0,0 68.6,-452.24 21.5,-752.33 -47,-300.09 -109.3,-575.44 -109.3,-575.44 h -263.7 l -52.4,1494.32 c 0,0 -101.4,812 -66.3,1032.24 35.1,220.16 205.8,514.81 205.8,514.81 l 414.9,-18.95 c 0,0 112.5,-403.11 93.5,-538.41 -14.2,-100.47 -176.9,-364.94 -176.9,-364.94"
         style="fill:#466eb6;fill-opacity:1;fill-rule:nonzero;stroke:none"
         id="path186" /></g><g
       id="g188"
       transform="scale(0.11778)"><path
         d="m 15977,4740.27 c 303.4,91.01 222.2,358.46 220.5,348.27 0.9,8.32 29.5,41.94 43.6,70.73 58.9,119.97 -18.8,264.3 -107.8,314.31 59,152.49 0.4,298.69 -110.8,359.65 -56.1,30.82 -103.3,74.55 -141.2,125.15 -84.2,112.33 -237.3,225.33 -421.3,188.49 -182.2,-46.62 61.7,-152.15 37.6,-327.31 -12.3,-88.81 22.9,-76.07 77.7,-147.48 -78.9,-138.81 -33.3,-371.79 87.8,-477.5 -59.3,-250.12 4.4,-547.28 313.9,-454.31"
         style="fill:#184655;fill-opacity:1;fill-rule:nonzero;stroke:none"
         id="path190" /></g><g
       id="g192"
       transform="scale(0.114077)"><path
         d="m 16262.9,6156.35 c 37.1,-152.61 -163.2,-263.42 -321.8,-267.45 -103.1,-2.63 -150.4,7.98 -167.1,116.59 -27,176.11 45.5,283.49 147.2,327.93 131.2,57.42 311.2,-51.19 341.7,-177.07"
         style="fill:#184655;fill-opacity:1;fill-rule:nonzero;stroke:none"
         id="path194" /></g><g
       id="g196"
       transform="scale(0.113196)"><path
         d="m 16154.9,6307.72 c 0,0 70.2,-23.59 107.6,-94.53 37.5,-70.94 18.9,-298.15 -137,-373.07 -155.8,-74.91 -227.4,95.23 -216.1,220.77 11.4,125.53 56.5,289.76 245.5,246.83"
         style="fill:#f7a491;fill-opacity:1;fill-rule:nonzero;stroke:none"
         id="path198" /></g><g
       id="g200"
       transform="scale(0.111512)"><path
         d="m 16300,6048.03 -112.3,1.71 c 0,0 2,-43.4 51.3,-45.65 60.2,-2.69 61,43.94 61,43.94"
         style="fill:#ffffff;fill-opacity:1;fill-rule:nonzero;stroke:none"
         id="path202" /></g><g
       id="g204"
       transform="scale(0.113481)"><path
         d="m 16277,6026.12 c 23,117.02 13.9,205.85 -69.3,248.67 -83.1,42.83 -154.3,85.31 -228.7,8.29 l -16.9,-9.43 c 0,0 140.6,-38.86 148.4,-113.5 7.9,-74.55 82.5,-163.29 71.1,-199.95 -11.6,-36.65 -24.8,-109.71 -24.8,-109.71 l 30.8,25.3 c 0,0 66.4,33.22 89.4,150.33"
         style="fill:#184655;fill-opacity:1;fill-rule:nonzero;stroke:none"
         id="path206" /></g><g
       id="g208"
       transform="scale(0.112959)"><path
         d="m 16206.7,6098.94 c -11.6,-32.48 -2.8,-65.06 19.7,-72.85 22.5,-7.71 50.2,12.3 61.9,44.79 11.7,32.49 2.8,65.16 -19.6,72.86 -22.6,7.79 -50.3,-12.31 -62,-44.8"
         style="fill:#f7a491;fill-opacity:1;fill-rule:nonzero;stroke:none"
         id="path210" /></g><path
       d="m 492.111,386.66 26.76,170.56 H 681.327 L 654.517,386.66 Z M 826.583,1481.32 799.772,1310.75 H 637.09 l 26.759,170.57 z M 710.379,742.04 683.568,571.48 H 521.107 l 26.759,170.56 z M 739.43,926.86 712.619,756.3 H 550.103 l 26.759,170.56 z m -131.336,199.07 26.759,170.57 h 162.679 l -26.81,-170.57 z m 160.387,-14.25 -26.81,-170.56 H 579.099 l 26.758,170.56 z M 489.875,372.4 H 652.276 L 613.518,125.83 h 16.753 l 218.6,1390.69 h -16.754 l -3.293,-20.95 H 666.085 l 3.288,20.95 H 652.619 L 433.808,125.83 h 16.753 l 39.314,246.57"
       style="fill:#f7cc7f;fill-opacity:1;fill-rule:nonzero;stroke:none;stroke-width:0.1"
       id="path212" /><g
       id="g214"
       transform="scale(0.111076)"><path
         d="m 10639,15719.1 c -1.5,-5.7 -13.7,-44.2 -32.4,-101.6 l 195.6,-39.4 c 2,32 4,58.7 6.4,78.1 16,135.7 79.7,172.5 112.5,247.8 32.9,75.3 160.1,123.1 144.3,148.6 -15.6,25.6 -134.1,-77.9 -162.6,-66.8 -28.5,11.1 101.4,166.7 85.7,187.5 -28.7,38.2 -152.1,-163.2 -166.6,-146.6 -14.5,16.6 102.8,229.2 55.8,231.9 -46.9,2.7 -98.9,-230.1 -123.6,-219.8 -24.7,10.2 68.2,214.4 21,244.9 -25.2,16.3 -114.9,-363.4 -154.8,-385.3 -40,-21.9 -96.3,127.8 -134.4,115.1 -38.2,-12.7 159.8,-270.9 153.1,-294.4"
         style="fill:#f79c8d;fill-opacity:1;fill-rule:nonzero;stroke:none"
         id="path216" /></g><g
       id="g218"
       transform="scale(0.116753)"><path
         d="m 8389.62,15722.6 c -0.83,-5.5 -5.4,-43.6 -11.76,-100.7 l -184.96,42.6 c 10.79,28.5 19.58,52.5 25.19,70.2 39.26,123.8 -1.51,180.8 -0.37,258.9 1.14,78.2 -90.38,169.5 -66.75,185.5 23.62,15.9 85.74,-120.2 114.75,-121.8 29.02,-1.6 -22.44,184.3 -0.77,196.1 39.91,21.9 67.84,-201.1 86.93,-192.4 19.09,8.7 0.87,239 42.61,222.9 41.75,-16.1 -4.48,-238.2 20.92,-239 25.41,-0.9 24.98,212.6 77.88,220.5 28.28,4.2 -43.07,-360.1 -17.02,-394.7 26.04,-34.7 133.6,73 161.6,47 28.1,-26 -244.79,-172.1 -248.25,-195.1"
         style="fill:#f79c8d;fill-opacity:1;fill-rule:nonzero;stroke:none"
         id="path220" /></g><g
       id="g222"
       transform="scale(0.106931)"><path
         d="m 11245.2,16242.1 c 0,0 -241.9,57.9 -244.3,38.5 -50.8,-425.7 -73.7,-579.7 -82.3,-584.1 -29.3,-15.1 -418.1,340.4 -487.4,364.5 -33.2,11.5 -69.2,9.6 -103.8,8.6 -82.5,-2.5 -98.7,-2.8 -98.7,-2.8 -2.4,-0.1 -3,-0.2 -3,-0.2 l 0.3,-77.5 c 93,-83.6 305.7,-1349.7 323.6,-1348.9 20,1 440.4,-104.8 433,-69.4 -1.2,5.7 -285,238 -365.6,573.1 -27,112.5 -40.3,233.7 -54.9,339.7 93.4,-46.8 458.2,-226.3 516,-202.6 179.8,73.8 167.1,961.1 167.1,961.1"
         style="fill:#f7cc7f;fill-opacity:1;fill-rule:nonzero;stroke:none"
         id="path224" /></g><path
       d="m 1279.87,1496.4 c 0,0 41.83,-32.76 43.22,-38.57 2.01,-8.36 40.31,2.63 31.07,4.34 -2.12,0.39 -8.92,2.11 -9.48,2.41 -2.99,1.6 -40.21,46.44 -40.21,46.44 l -24.6,-14.62"
       style="fill:#f7a491;fill-opacity:1;fill-rule:nonzero;stroke:none;stroke-width:0.1"
       id="path226" /><path
       d="m 1372.12,1462.17 -26.7,2.17 c 0,0 -7.63,-6.32 -22.3,-6.61 0,0 -2.35,-6.7 -1.23,-14.54 0.19,-1.35 0.42,-5.43 1.78,-5.34 4.93,0.34 18.08,3.61 33.05,6.6 0,0 20.13,4.27 31.75,11.22 11.63,6.96 -16.35,6.5 -16.35,6.5"
       style="fill:#f7cc7f;fill-opacity:1;fill-rule:nonzero;stroke:none;stroke-width:0.1"
       id="path228" /><path
       d="m 1092.49,1578.57 c 0,0 30.62,-5.14 64.49,2.78 39.2,9.17 82.53,17.65 95.23,10.27 10.22,-5.95 74.05,-102.39 74.05,-102.39 l -24.65,-17.99 -70.28,78.7 c 0,0 -89.66,-33.08 -109.8,-29.42 -45.86,8.35 -46.51,44.98 -29.04,58.05"
       style="fill:#355389;fill-opacity:1;fill-rule:nonzero;stroke:none;stroke-width:0.1"
       id="path230" /><path
       d="m 1188.24,1431.69 c 0,0 -1.86,-50.58 -3.02,-59.14 -1.15,-8.53 21.47,-34.22 18.58,-25.28 -0.67,2.05 -2.38,8.86 -2.38,9.49 -0.01,3.39 8.39,61.09 8.39,61.09 l -21.57,13.84"
       style="fill:#f7a491;fill-opacity:1;fill-rule:nonzero;stroke:none;stroke-width:0.1"
       id="path232" /><path
       d="m 1218.26,1328.84 -16.7,27.15 c 0,0 -9.18,3.72 -16.42,16.49 0,0 -7,-1.13 -13.37,-5.83 -1.1,-0.81 -8.57,-6.28 -8.05,-7.54 1.91,-4.65 12.1,-14.6 23.24,-25.46 0,0 15.78,-12.74 27.43,-19.66 11.64,-6.92 3.87,14.85 3.87,14.85"
       style="fill:#f7cc7f;fill-opacity:1;fill-rule:nonzero;stroke:none;stroke-width:0.1"
       id="path234" /><path
       d="m 1237.88,1531.42 c -10.71,14.28 -97.14,27.84 -97.14,27.84 l -24.1,46.33 -53.29,-32.87 c 0,0 5.33,-42.4 9.33,-53.73 5.32,-15.1 41.14,-15.87 63.01,-15.65 20.13,0.21 56.89,-3.9 56.89,-3.9 l -12.43,-109.69 c 0,0 24.44,-5.56 31.31,-4.66 0.77,0.1 39.74,128.57 26.42,146.33"
       style="fill:#466eb6;fill-opacity:1;fill-rule:nonzero;stroke:none;stroke-width:0.1"
       id="path236" /><g
       id="g238"
       transform="scale(0.105395)"><path
         d="m 10377.4,16300 -285.2,-15.9 c 0,0 -6.5,-2 -8.5,-2.4 -23.3,-4.3 -2.2,-835.7 18.6,-1146.2 20.6,-310.5 62.7,-440.9 62.7,-440.9 0,0 386.9,68.7 505.7,114.8 49.2,19.1 168.5,168.2 168.5,168.2 0,0 -121.8,163.8 -183.2,429.9 -47.4,205.2 -105.7,569 -139.1,645 -76.8,174.3 -139.5,247.5 -139.5,247.5"
         style="fill:#184655;fill-opacity:1;fill-rule:nonzero;stroke:none"
         id="path240" /></g><g
       id="g242"
       transform="scale(0.107484)"><path
         d="m 9903.99,16214.6 -7.91,-247 c 0,0 181.02,-312 274.02,-268.5 78,36.5 8.8,273.8 8.8,273.8 0,0 -13.6,54.4 -32.3,117 -13.1,43.6 -24,91 -23.1,125.7 1.9,84.4 -219.51,-1 -219.51,-1"
         style="fill:#f7a491;fill-opacity:1;fill-rule:nonzero;stroke:none"
         id="path244" /></g><g
       id="g246"
       transform="scale(0.107484)"><path
         d="m 10123.5,16215.6 c 1.9,84.4 -219.51,-1 -219.51,-1 l -0.75,-24.1 c 7.45,-11.3 15.64,-20.8 24.75,-28.1 59.46,-48.4 145.61,-70.1 215.61,-62.1 -11.7,40.7 -20.9,83.3 -20.1,115.3"
         style="fill:#f26a3c;fill-opacity:1;fill-rule:nonzero;stroke:none"
         id="path248" /></g><g
       id="g250"
       transform="scale(0.110635)"><path
         d="m 9832.02,16300 c 0,0 89.67,-135.1 96.36,-248.9 6.69,-113.7 -17.36,-191.3 -17.36,-191.3 l -287.7,343.9 208.7,96.3"
         style="fill:#f7cc7f;fill-opacity:1;fill-rule:nonzero;stroke:none"
         id="path252" /></g><g
       id="g254"
       transform="scale(0.109581)"><path
         d="m 10054.1,16229.1 c 4.1,-40.2 -11.6,-74.7 -35,-77.1 -23.36,-2.4 -45.62,28.3 -49.63,68.5 -4.11,40.2 11.49,74.7 34.83,77.1 23.4,2.4 45.7,-28.3 49.8,-68.5"
         style="fill:#f48c7f;fill-opacity:1;fill-rule:nonzero;stroke:none"
         id="path256" /></g><g
       id="g258"
       transform="scale(0.110761)"><path
         d="m 9519.39,16130.2 c -6.6,1.4 -5.87,-329.3 89.92,-407.1 95.88,-77.8 262.64,-84.6 311.39,-6.2 53.9,86.7 2.62,435.1 -139.94,509.1 -142.56,74 -261.37,-95.8 -261.37,-95.8"
         style="fill:#f7a491;fill-opacity:1;fill-rule:nonzero;stroke:none"
         id="path260" /></g><g
       id="g262"
       transform="scale(0.112174)"><path
         d="m 9375.56,16129.6 c -72.21,-63.3 -107.24,-109.6 -156.09,-222.2 -60.09,-138.5 59.1,-282 159.13,-339 100.02,-57 108.31,-125.9 108.31,-125.9 l 4.1,42.5 c 2.05,15.5 1.43,28.1 -1.25,39 -3.12,12.9 -9,23.5 -14.17,34.5 -8.56,18.2 -35.93,80.6 -46.54,97 -28.17,43.4 -33.69,52.8 -19.79,94 10.7,31.8 -1.69,101.8 14.8,154.1 l 134.61,29.1 c 0,0 84.25,20.2 126.77,69.3 122.13,140.9 -119.28,298 -309.88,127.6"
         style="fill:#f7cc7f;fill-opacity:1;fill-rule:nonzero;stroke:none"
         id="path264" /></g><g
       id="g266"
       transform="scale(0.108532)"><path
         d="m 9758.02,16241 c 17.14,-37 13.54,-75.1 -7.93,-85.1 -21.55,-9.9 -52.88,12 -70.02,49 -17.14,37.1 -13.54,75.2 7.92,85.1 21.56,10 52.89,-11.9 70.03,-49"
         style="fill:#f7a491;fill-opacity:1;fill-rule:nonzero;stroke:none"
         id="path268" /></g><g
       id="g270"
       transform="scale(0.112809)"><path
         d="m 9428.94,15213.9 c 0,0 -264.25,12.3 -332.42,43.1 -41.31,18.7 -380.88,292.3 -380.88,292.3 l 3.81,732.5 -238.79,18.2 c 0,0 -123.81,-809.7 -80.93,-898.3 44.29,-91.5 541.31,-468.3 640.68,-631.8 57.26,-94.2 176.67,-1375.3 194.75,-1386.8 128.63,-66.9 525.76,-133.8 516.36,-93.2 -258.49,1122 -322.58,1924 -322.58,1924"
         style="fill:#f7cc7f;fill-opacity:1;fill-rule:nonzero;stroke:none"
         id="path272" /></g><g
       id="g274"
       transform="scale(0.107892)"><path
         d="m 9976.52,16248.9 160.78,51.1 c 0,0 15.7,-62.3 -54.4,-86.8 -85.44,-29.8 -106.38,35.7 -106.38,35.7"
         style="fill:#ffffff;fill-opacity:1;fill-rule:nonzero;stroke:none"
         id="path276" /></g><g
       id="g278"
       transform="scale(0.114469)"><path
         d="m 15871.3,12506.1 c 19.6,3.3 29.4,29.1 19.4,45.3 -16,26.1 -31.6,52.5 -47.3,78.8 -34.8,58 -37.9,59.2 -35.1,65.9 6.8,15.8 36.5,8.6 47.2,4.9 23.8,-8.2 45.6,-22.4 70.9,-25.6 49.2,-6.3 85.1,31.4 63.2,79.1 -20.1,43.7 -42.7,86.6 -65.7,129.1 52.9,-10.8 105.5,-23.1 158.4,-33.2 18.8,-3.5 31.6,13.2 24.1,30.6 -16.8,38.6 -66.6,153.1 -83,190.8 -4.3,9.8 -29.4,52.9 -20.7,61.1 7.8,7.5 44,-2.6 52.3,-3.8 46,-6.7 62.3,-8.4 212.2,-26.7 17.9,-2.2 32.8,22.2 22.1,37.1 -104.6,146.3 -86.4,159.6 -123.7,180.1 -8.3,4.6 -16.3,-1.1 -17.6,-9.7 -3.3,-22 -2.5,-27.5 36.9,-97.3 10.2,-18 20.8,-35.8 31.9,-53.3 -181.7,25.7 -226.8,36.5 -251.4,-4.3 -17,-28.3 -8.8,-35.9 86,-252.3 -54.8,14.2 -110.2,25 -165.7,36.9 -21.1,4.6 -36.6,-15.3 -27.5,-34.8 72.6,-156.1 80.9,-157.2 83.5,-172.7 0.1,-0.4 9.6,-2.6 -4.6,-1.3 -24.1,2.1 -68.6,37.2 -114.8,31.9 -40.6,-4.7 -79.3,-38 -70.1,-82.3 5.3,-25.7 14.9,-34.8 63.3,-120.8 -47.7,-9.4 -94.1,-24.5 -141.6,-46.3 -20.6,-9.5 -32.9,-18.3 -45.8,-37.2 -10.6,-15.3 2.6,-40.2 21.5,-39.1 53.8,3 77.2,44.7 221.7,69.1"
         style="fill:#f7cc7f;fill-opacity:1;fill-rule:nonzero;stroke:none"
         id="path280" /></g><g
       id="g282"
       transform="scale(0.121279)"><path
         d="m 15880.9,11396.3 c -6.4,43.2 -9.5,84.6 -8.3,129.9 0.2,8.6 -1.3,24.5 7.4,29.9 20.8,12.9 51.9,-22.9 131.9,-40.4 34.7,-7.6 105.9,-26.3 121,20.4 7.9,23.9 2.8,54 2.7,78.8 0,18.9 0.6,37.7 0.9,56.5 129.9,-36.7 122.4,-44.3 151.9,-31.4 7.6,3.3 11.6,15 7.1,22.2 -16.9,26.7 -13.5,19 -176.7,66.9 -15,4.4 -33.3,-6 -33.2,-22.9 0.1,-25.5 6.8,-140.8 5.4,-155.1 -1.3,0.9 -7.6,-0.3 -8.9,-0.2 -54.3,1.9 -99.9,21.5 -149,41.8 -40.3,16.6 -95.1,16.9 -107.7,-34.7 -6.9,-28 -4,-85.7 0.1,-130.2 -79.1,25.3 -158,51.2 -237.2,75.9 -15.5,4.9 -37.7,-6.6 -36.5,-25.2 3.5,-51.6 5.3,-103.1 6.6,-154.8 -46.5,15.3 -90.4,37.8 -130.3,66.6 -29.3,21.2 -66.7,-19.9 11.1,-68.3 42.6,-28.5 89.4,-49.3 139.6,-62.5 16.6,-4.4 36.6,6.2 36.6,25.3 0.1,51.1 -2,102.3 -5.1,153.4 79,-24.2 158.4,-47.6 237.4,-71.9 19.4,-5.9 36.1,10.8 33.2,30"
         style="fill:#f26a3c;fill-opacity:1;fill-rule:nonzero;stroke:none"
         id="path284" /></g><g
       id="g286"
       transform="scale(0.122284)"><path
         d="m 16021.7,10275.3 c 0.3,-15.6 10.3,-25.6 25,-28.2 72,-13 143.3,-19.7 215.7,-7.4 37.6,6.4 24.2,62.5 -12.6,58.5 -57.7,-6.3 -117.3,-9.6 -175.5,-2.1 1.4,43.3 6.9,86.1 17.6,128 4.1,15.9 -6.5,37.3 -25.1,36.8 -46.6,-1.3 -222.5,-11.5 -224,-13.4 0.2,0.3 0.5,1.5 -0.1,4.7 -3.4,18.7 10.3,82.2 8.9,111.3 -1.6,32.6 -45,44.4 -71.2,46.9 -53.2,5.2 -112.3,-33.3 -164.1,-12.6 -49.9,19.9 6.2,98.1 -34.1,159.3 -30.9,47.1 -84.3,32.9 -168.3,16.7 -20.7,-4 -40.8,-8.1 -51.2,-28.4 -2.6,-5 -3.1,-12.4 1.6,-16.7 25.4,-23.6 55.7,-12.9 132.6,-0.2 9.8,1.6 26.3,7.4 35.1,0.2 29,-24.1 -13.5,-90.4 20.8,-146.2 26.8,-43.5 80.4,-51.5 125.9,-46 35.6,4.3 79.6,25 115.8,12.1 -2,-30.9 -4.9,-62.1 -4.5,-93 0.5,-33.8 17.7,-57.3 51.7,-60.1 37.6,-3.1 76.6,2.1 114.2,3.8 25.3,1.2 50.4,2.2 75.7,3.6 -7.2,-42.1 -10.7,-84.5 -9.9,-127.6"
         style="fill:#3cb4c5;fill-opacity:1;fill-rule:nonzero;stroke:none"
         id="path288" /></g><g
       id="g290"
       transform="scale(0.105707)"><path
         d="m 16137.3,14159.9 c -232.7,190.9 -351.3,19.1 -284.3,-60.1 28.7,-34 79.7,-36.7 105.4,1.7 11.7,17.6 -5.6,46.7 -27.5,39.8 -18.2,-5.7 -22.5,14.9 -3.2,22.9 26,10.7 57.5,-8.3 79.8,-20.1 52.1,-27.6 120.1,-62.7 129,-128.1 13.2,-97.5 -86,-200.7 -233,-143.9 -212,82.1 -201.9,429 22.9,486.6 122.4,31.3 253.8,-20.6 328.9,-121.3 14.7,-19.6 40.9,3.4 33,23.1 -60,149.4 -250.7,206.3 -395.4,155.7 -148.3,-51.9 -222.2,-208.3 -200,-359.4 23.2,-158.5 158.7,-290.4 324.1,-273.5 181.3,18.6 283,243.1 120.3,376.6"
         style="fill:#3cb4c5;fill-opacity:1;fill-rule:nonzero;stroke:none"
         id="path292" /></g><g
       id="g294"
       transform="scale(0.120314)"><path
         d="m 16191.9,9979.3 c -33.4,23.3 -102.2,37.7 -124.6,-7.77 -10.4,-21.09 -4.6,-47.15 19.9,-55.19 24,-7.87 46.5,5.03 65,-17.19 15.9,-19.05 6.3,-46.4 -8.2,-63.47 -44.2,-52.06 -138.6,-36.1 -191.3,-7.2 -84,45.89 -98.6,166.01 -8.1,223.52 28.3,18 61.3,21.9 93.3,29.3 17.6,4.2 26.1,32.2 7.4,41.6 -71.9,36.3 -160.5,-10.3 -203.1,-71.4 -44.7,-64.16 -43,-155.57 -1.5,-220.96 46.3,-73.05 139.7,-109.41 223.7,-108.49 174.6,1.93 235.6,181.7 127.5,257.25"
         style="fill:#3c8f7c;fill-opacity:1;fill-rule:nonzero;stroke:none"
         id="path296" /></g><path
       d="m 1533.15,552.34 c -0.65,-2.22 -1.02,-2.95 -1.83,-4.44 -5.28,-9.61 -17.54,-23.33 -17.54,-23.33 l -9.47,21.35 c 0,0 1.54,6.71 4.22,16.29 9.15,-2.39 17.87,-3.77 24.62,-9.87"
       style="fill:#f8a492;fill-opacity:1;fill-rule:nonzero;stroke:none;stroke-width:0.1"
       id="path298" /><path
       d="m 1478.81,570.86 c 0,0 52.86,-22.76 54.57,-22.33 1.1,0.28 21.68,34.73 21.9,67.13 0.1,14.96 -15.43,32.96 -32.77,29.4 -8.73,-1.79 -8.59,-4.22 -21.51,-22.98 -12.91,-18.77 -22.19,-51.22 -22.19,-51.22"
       style="fill:#466eb6;fill-opacity:1;fill-rule:nonzero;stroke:none;stroke-width:0.1"
       id="path300" /><path
       d="m 1433.69,162.76 1.26,-20.81 c 0.46,-2.63 2.28,-9.14 2.28,-11.54 0,-9 -42.74,7.64 -33.16,11.63 0.86,0.36 5.41,3.09 5.69,6.16 0.44,4.72 1.55,14.27 1.55,14.27 l 22.38,0.29"
       style="fill:#f7a491;fill-opacity:1;fill-rule:nonzero;stroke:none;stroke-width:0.1"
       id="path302" /><path
       d="m 1404.17,142.13 c 0,0 10.04,-2.76 15.18,-3.45 5.14,-0.68 11.91,5.11 15.55,3.55 4,-1.73 3.84,-17.24 3.84,-17.24 0,0 -53.81,-4.41 -68.94,0.15 -6,1.81 13.86,10.57 34.37,16.99"
       style="fill:#3c8f7c;fill-opacity:1;fill-rule:nonzero;stroke:none;stroke-width:0.1"
       id="path304" /><path
       d="m 1521.13,162.76 1.26,-20.81 c 0.46,-2.63 2.28,-9.14 2.28,-11.54 0,-9 -42.75,7.64 -33.17,11.63 0.87,0.36 6.76,5.13 7.04,8.19 0.44,4.73 0.21,12.24 0.21,12.24 l 22.38,0.29"
       style="fill:#f7a491;fill-opacity:1;fill-rule:nonzero;stroke:none;stroke-width:0.1"
       id="path306" /><path
       d="m 1491.61,142.13 c 0,0 10.03,-2.76 15.17,-3.45 5.14,-0.68 11.92,5.11 15.55,3.55 4,-1.73 4.17,-17.24 4.17,-17.24 0,0 -54.06,-5.15 -69.27,0.15 -5.9,2.06 13.86,10.57 34.38,16.99"
       style="fill:#3c8f7c;fill-opacity:1;fill-rule:nonzero;stroke:none;stroke-width:0.1"
       id="path308" /><path
       d="m 1517.16,678.93 4.85,-30.65 c 0,0 -18.47,-14.82 -29.23,-11.7 -9.03,2.63 -2.84,14.44 -2.84,14.44 0,0 4.81,16.36 3.33,24.93 -1.47,8.58 23.89,2.98 23.89,2.98"
       style="fill:#f7a491;fill-opacity:1;fill-rule:nonzero;stroke:none;stroke-width:0.1"
       id="path310" /><path
       d="m 1513.68,669.67 c -4.63,-2.19 -13.78,-5.17 -20.9,-5.89 0.68,4.28 1.07,8.82 0.49,12.17 -0.68,3.96 4.36,4.9 9.98,4.76 7.35,-0.63 13.91,-1.78 13.91,-1.78 l 0.93,-5.89 c -1.4,-1.47 -2.87,-2.65 -4.41,-3.37"
       style="fill:#fe875e;fill-opacity:1;fill-rule:nonzero;stroke:none;stroke-width:0.1"
       id="path312" /><path
       d="m 1540.46,714.28 c 0.76,0 -7.3,-34.24 -19.77,-40.13 -12.48,-5.89 -31.08,-2.82 -34.57,6.4 -3.86,10.2 10.22,45.13 27.77,49.57 17.54,4.44 26.57,-15.84 26.57,-15.84"
       style="fill:#f7a491;fill-opacity:1;fill-rule:nonzero;stroke:none;stroke-width:0.1"
       id="path314" /><path
       d="m 1526.03,745.74 c 9.96,-5.75 14.54,-14.27 16.07,-17.76 4.68,-2.22 10.34,-7.02 13.06,-19.96 3.34,-15.9 -8.54,-28.16 -21.13,-31.85 -12.59,-3.69 -14.53,-12.02 -14.53,-12.02 l -1.43,8.97 c 0,0 2.8,7.8 7.01,11.71 4.21,3.91 -1.99,9.6 -2.54,14.25 -0.42,3.57 2.21,10.52 1.64,16.38 0,0 -6.99,10.61 -13.89,13.23 -11.75,4.46 2.95,24.42 15.74,17.05"
       style="fill:#13375b;fill-opacity:1;fill-rule:nonzero;stroke:none;stroke-width:0.1"
       id="path316" /><path
       d="m 1520.72,693.12 c -1.63,-3.96 -0.96,-7.88 1.49,-8.77 2.46,-0.89 5.77,1.59 7.4,5.55 1.63,3.95 0.96,7.88 -1.49,8.77 -2.45,0.88 -5.77,-1.6 -7.4,-5.55"
       style="fill:#f7a491;fill-opacity:1;fill-rule:nonzero;stroke:none;stroke-width:0.1"
       id="path318" /><path
       d="m 1474.25,539.99 -72.61,11.84 c 0,0 8.26,20.8 11.22,20.8 2.95,0 54.9,-22.68 54.9,-22.68 l 4.13,-8.3 2.36,-1.66"
       style="fill:#f8a492;fill-opacity:1;fill-rule:nonzero;stroke:none;stroke-width:0.1"
       id="path320" /><path
       d="m 1511.45,490.2 c 0,0 7.24,-35.02 4.29,-61.57 -2.95,-26.55 -3.18,-120.88 -3.18,-120.88 l 11.26,-150.91 -26.73,-0.59 c 0,0 -31.69,150.85 -31.1,146.98 0.59,-3.88 -10.63,106.21 -10.63,106.21 l 37.79,84.08 18.3,-3.32"
       style="fill:#184655;fill-opacity:1;fill-rule:nonzero;stroke:none;stroke-width:0.1"
       id="path322" /><path
       d="m 1504.36,491.86 c 0,0 4.73,-31.53 -1.18,-45.36 -5.9,-13.83 -50.63,-149.52 -51.22,-160.58 -0.59,-11.07 -15.47,-133.36 -15.47,-133.36 l -31.08,0.88 -6.72,135.96 14.07,170.88 13.67,43.2 77.93,-11.62"
       style="fill:#13375b;fill-opacity:1;fill-rule:nonzero;stroke:none;stroke-width:0.1"
       id="path324" /><path
       d="m 1522.01,648.28 c 0,0 -7.67,-5.03 -14.82,-4.44 -7.14,0.58 -17.25,7.18 -17.25,7.18 l 1.4,4.76 c 0,0 18.5,2.69 18.96,2.4 0.47,-0.29 11.71,-9.9 11.71,-9.9"
       style="fill:#f7a491;fill-opacity:1;fill-rule:nonzero;stroke:none;stroke-width:0.1"
       id="path326" /><path
       d="m 1440.32,573.66 c 0,0 -27.46,-25.92 -39.86,-21.5 -12.4,4.43 -17.53,19.55 12.72,41.69 27.07,19.8 27.14,-20.19 27.14,-20.19"
       style="fill:#f8a492;fill-opacity:1;fill-rule:nonzero;stroke:none;stroke-width:0.1"
       id="path328" /><path
       d="m 1421.71,541.65 c 4.08,22.2 33.65,91.28 36.01,104 1.15,6.19 17.1,6.32 32.3,5.52 16.04,-0.86 31.99,-2.89 31.99,-2.89 0,0 14.2,-2.33 20.45,-8.19 6.25,-5.85 7.92,-22.05 -1.07,-52.8 -7.09,-24.27 -15.89,-37.6 -20.24,-55.28 -0.88,-5.93 -1.63,-11.78 -2.64,-18.62 -1.59,-26.43 0.02,-61.36 0.02,-61.36 0,0 -77.34,-16.04 -106.27,8.3 0,0 5.27,58.58 9.45,81.32"
       style="fill:#50bfa5;fill-opacity:1;fill-rule:nonzero;stroke:none;stroke-width:0.1"
       id="path330" /><path
       d="m 1401.99,589.38 c 0,0 30.35,-25.05 32.12,-25.05 1.14,0 43.31,31.02 53.04,56.5 5.38,14.09 -5.91,29.85 -18.8,29.8 -8.93,-0.04 -12.91,-2.34 -30.62,-17.28 -17.71,-14.93 -35.74,-43.97 -35.74,-43.97"
       style="fill:#466eb6;fill-opacity:1;fill-rule:nonzero;stroke:none;stroke-width:0.1"
       id="path332" /><path
       d="m 1488.28,695.36 11.39,-6.24 c 0,0 -2.98,-4.79 -8.08,-2.21 -6.22,3.15 -3.31,8.45 -3.31,8.45"
       style="fill:#ffffff;fill-opacity:1;fill-rule:nonzero;stroke:none;stroke-width:0.1"
       id="path334" /><path
       d="m 767.01,561.86 c -0.892,2.55 11.534,4.61 12.195,7.2 0.662,2.58 -15.689,2.78 -16.274,5.06 -1.079,4.18 17.921,0.88 17.547,2.83 -0.375,1.96 -19.799,6.33 -17.7,9.68 2.099,3.36 19.669,-6.63 20.201,-4.35 0.532,2.28 -17.174,7.82 -16.857,12.81 0.169,2.67 29.062,-13.31 32.412,-11.86 3.351,1.46 -3.604,14 -0.936,15.86 2.668,1.86 10.325,-25.49 12.166,-26.41 1.835,-0.91 40.872,-23.19 54.76,-26.73 1.687,4.65 21.577,33.45 23.065,37.85 7.793,-5.55 15.786,-6.31 23.829,-11.36 -5.826,-14.6 -32.571,-55.14 -36.631,-56.97 -12.36,-5.59 -60.164,34.06 -69.706,40.85 -9.551,6.79 -15.016,4.59 -21.474,6.73 -6.458,2.15 -15.705,-3.75 -16.597,-1.19"
       style="fill:#f7a491;fill-opacity:1;fill-rule:nonzero;stroke:none;stroke-width:0.1"
       id="path336" /><path
       d="m 1032.24,667.64 c -7.15,19.06 -25.85,30.6 -45.311,27.04 -5.973,9.64 -15.932,16.79 -26.766,19.11 -21.372,4.58 -50.274,-3.86 -49.495,-26.49 -8.29,-15.2 -8.609,-36.94 4.078,-48.5 -4.414,-20.44 14.733,-40.21 39.622,-39.49 8.667,-14.29 25.179,-23.48 41.6,-21.52 3.941,0.47 9.952,1.45 10.952,1.21 -1.26,0.23 26.37,-20.95 49.78,11.62 23.89,33.24 7.11,73.47 -24.46,77.02"
       style="fill:#184655;fill-opacity:1;fill-rule:nonzero;stroke:none;stroke-width:0.1"
       id="path338" /><path
       d="m 965.15,483.81 c 0.71,-0.3 -9.392,-13.31 -19.232,-22.52 -7.935,-9.96 -15.377,-21.75 -17.938,-34.6 -3.895,-19.54 -0.655,-116.08 -4.045,-122.95 -29.118,-28.47 -50.204,-99.91 -56.122,-121.71 -1.154,-4.25 -3.491,-8.07 -6.731,-11.05 l 1.295,-24.63 14.468,-13.33 c 0,0 -3.218,20.07 3.213,34.96 0,0 73.312,111.02 77.664,119.51 8.315,24.17 38.593,147.99 38.593,147.99 l 7.025,28.47 -38.19,19.86"
       style="fill:#f7a491;fill-opacity:1;fill-rule:nonzero;stroke:none;stroke-width:0.1"
       id="path340" /><path
       d="m 845.233,163.05 c 0,0 9.157,-14.11 9.939,-19.61 0.783,-5.5 5.66,-17.97 11.054,-18.76 1.225,-0.18 22.205,-1.72 22.052,0.9 -0.116,2.01 -7.711,4.87 -11.237,7.3 -6.096,4.21 -15.557,38.5 -15.557,38.5 0,0 -15.856,-3.93 -16.251,-8.33"
       style="fill:#355389;fill-opacity:1;fill-rule:nonzero;stroke:none;stroke-width:0.1"
       id="path342" /><path
       d="m 968.213,634.6 c 0,0 30.681,55.18 38.147,66.91 7.46,11.73 26.91,58.34 27.6,60.17 0.7,1.84 -13.39,23.9 -10.25,24.65 3.15,0.76 6.63,-11.62 9.98,-10.15 3.36,1.48 13.16,31.3 15.07,29.82 3.57,-2.77 -5.28,-18.5 -3.38,-19.49 1.91,-0.99 7.68,17.31 11.43,16.77 3.74,-0.54 -7.12,-16.77 -6.07,-18.2 1.04,-1.44 12.32,13.86 14.36,10.6 1.11,-1.77 -10.37,-13.35 -8.16,-14.44 2.2,-1.08 12.41,6.39 13.49,4.24 1.09,-2.16 -9.44,-5.11 -12.59,-10.92 -3.14,-5.81 -8.5,-8.32 -10.73,-19.08 -2.23,-10.76 -5.55,-49.7 -16.96,-69.12 -11.4,-19.43 -36.473,-62.42 -36.473,-62.42 l -25.464,10.66"
       style="fill:#f79c8d;fill-opacity:1;fill-rule:nonzero;stroke:none;stroke-width:0.1"
       id="path344" /><path
       d="m 1027.81,441.02 c 0,0 47.22,-100.96 47.52,-118.71 0.26,-15.22 -8.25,-100.59 -5.87,-171.68 0.08,-2.57 3.33,-5.98 8.06,-8.15 2.67,-1.22 15.53,-6.96 15.53,-6.96 l 1.76,-4.6 -44.28,3.15 -0.63,12.09 c 0,0 -17.63,106.35 -15.83,136.43 0.28,4.73 2.58,33.01 2.58,33.01 l -53.259,102.82 33.489,44.02 10.93,-21.42"
       style="fill:#f7a491;fill-opacity:1;fill-rule:nonzero;stroke:none;stroke-width:0.1"
       id="path346" /><path
       d="m 919.573,319.74 h 0.018 -0.018"
       style="fill:#f26a3c;fill-opacity:1;fill-rule:nonzero;stroke:none;stroke-width:0.1"
       id="path348" /><path
       d="m 987.118,604.73 c 1.27,7.76 13.282,27.19 15.182,31.95 0,0 -13.93,17.7 -25.236,16.36 0,0 -15.193,-25.19 -23.832,-26.03 -8.637,-0.85 -39.021,-2.17 -44.347,-5.4 -5.325,-3.23 -27.925,-37.93 -27.925,-37.93 0,0 20.308,-20.74 28.478,-20.69 0,0 4.343,8.55 6.073,10.42 1.231,-3.98 20.152,-65.28 20.125,-79.17 l 0.146,-0.12 c 17.688,-14.34 43.495,-11.02 57.137,7.35 0,0 -1.604,19.11 -0.695,36.73 1.425,27.61 7.013,42.28 -5.106,66.53"
       style="fill:#3c8f7c;fill-opacity:1;fill-rule:nonzero;stroke:none;stroke-width:0.1"
       id="path350" /><path
       d="m 1085.6,367.57 -92.681,133.9 c -5.718,-2.32 -11.12,-4.33 -17.23,-5.51 -13.289,-2.57 -26.597,-2.15 -40.053,-1.72 0,-0.5 -0.027,-0.94 -0.079,-1.31 -1.546,-11.04 -16.188,-28.13 -19.206,-61.63 -3.426,-38.02 -1.354,-104.07 -0.194,-108.41 61.616,7.49 151.963,26.33 169.443,44.68"
       style="fill:#f7cc7f;fill-opacity:1;fill-rule:nonzero;stroke:none;stroke-width:0.1"
       id="path352" /><path
       d="m 937.603,649.33 c 0,0 3.258,-17.56 2.606,-24.48 -0.652,-6.93 2.486,-29.24 16.562,-29.32 14.076,-0.07 2.673,28.38 1.347,35.16 -1.326,6.79 -1.64,27.79 -1.64,27.79 l -18.875,-9.15"
       style="fill:#f7a491;fill-opacity:1;fill-rule:nonzero;stroke:none;stroke-width:0.1"
       id="path354" /><path
       d="m 956.769,647.95 c -0.219,5.74 -0.291,10.53 -0.291,10.53 l -18.875,-9.15 c 0,0 0.666,-3.59 1.335,-8.16 8.263,-1.73 14.25,1.45 17.831,6.78"
       style="fill:#f26a3c;fill-opacity:1;fill-rule:nonzero;stroke:none;stroke-width:0.1"
       id="path356" /><path
       d="m 930.703,697.78 c 0,0 -7.274,-4.2 -9.933,-13.31 -2.659,-9.11 0.368,-32.61 19.157,-38.28 18.789,-5.67 26.929,12.94 23.059,27.49 -3.87,14.55 -12.288,32.97 -32.283,24.1"
       style="fill:#f7a491;fill-opacity:1;fill-rule:nonzero;stroke:none;stroke-width:0.1"
       id="path358" /><path
       d="m 965.335,679.32 c -0.367,-3.91 -2.438,-6.9 -4.624,-6.67 -2.186,0.22 -3.659,3.57 -3.291,7.47 0.368,3.91 2.438,6.9 4.624,6.68 2.186,-0.23 3.66,-3.58 3.291,-7.48"
       style="fill:#f7a491;fill-opacity:1;fill-rule:nonzero;stroke:none;stroke-width:0.1"
       id="path360" /><path
       d="m 926.18,664.26 c 2.208,-3.42 2.199,-7.45 -0.018,-9 -2.217,-1.55 -5.803,-0.04 -8.011,3.37 -2.207,3.42 -2.199,7.45 0.018,9 2.217,1.55 5.804,0.04 8.011,-3.37"
       style="fill:#f7a491;fill-opacity:1;fill-rule:nonzero;stroke:none;stroke-width:0.1"
       id="path362" /><path
       d="m 1050.38,125.64 h 55.94 c 2.07,0.19 2.58,1.86 1.86,2.89 -1.48,2.11 -8.01,3.67 -15.34,7.05 -12.87,-1.34 -40.89,7.45 -42.92,10.4 -1.17,-5.91 -0.69,-20.09 0.46,-20.34"
       style="fill:#355389;fill-opacity:1;fill-rule:nonzero;stroke:none;stroke-width:0.1"
       id="path364" /><path
       d="m 940.282,660.37 12.008,3.54 c 0,0 1.089,-4.73 -4.145,-6.44 -6.384,-2.09 -7.863,2.9 -7.863,2.9"
       style="fill:#ffffff;fill-opacity:1;fill-rule:nonzero;stroke:none;stroke-width:0.1"
       id="path366" /><path
       d="m 635.581,937.56 c 1.563,-0.07 5.848,-1.5 12.114,-13.34 8.002,-15.13 19.697,-60.81 19.697,-60.81 l -34.909,-13 -4.485,9.54 -7.386,73.4 c 0,0 14.535,4.23 14.969,4.21"
       style="fill:#3c8f7c;fill-opacity:1;fill-rule:nonzero;stroke:none;stroke-width:0.1"
       id="path368" /><path
       d="m 589.435,944.14 c 9.982,-0.01 34.681,-2.92 46.145,-6.59 0,0 8.421,-72.38 -7.582,-127.38 -3.582,-12.31 2.963,-51.04 2.963,-51.04 l -103.439,1.37 c 0,0 12.255,93.62 7.638,108.74 -4.616,15.12 -4.726,67.83 -4.726,67.83 0,0 0.709,0.11 23.24,4 10.509,1.82 25.103,3.09 35.761,3.07"
       style="fill:#96d9c9;fill-opacity:1;fill-rule:nonzero;stroke:none;stroke-width:0.1"
       id="path370" /><path
       d="m 577.382,624.79 c 0,0 2.288,-26.41 6.495,-33.73 4.208,-7.31 -0.221,-19.75 -0.442,-21.45 -0.222,-1.71 -8.858,-4.15 -22.587,-2.68 -13.73,1.46 -13.509,4.63 -12.401,9.75 1.107,5.12 8.414,11.7 8.857,16.58 0.443,4.87 -4.207,22.43 -4.207,22.43 l 24.285,9.1"
       style="fill:#f7a491;fill-opacity:1;fill-rule:nonzero;stroke:none;stroke-width:0.1"
       id="path372" /><path
       d="m 619.29,780.93 c 0,0 71.404,3.97 87.349,-5.69 15.944,-9.66 -11.328,-57.05 -11.328,-57.05 0,0 -49.686,2.29 -147.005,-3.33 -23.045,-1.33 -25.032,60.09 -20.723,65.18 4.31,5.08 91.707,0.89 91.707,0.89"
       style="fill:#355389;fill-opacity:1;fill-rule:nonzero;stroke:none;stroke-width:0.1"
       id="path374" /><path
       d="m 559.135,564.88 c -14.138,1.5 -12.389,8.45 -11.249,13.72 0.714,3.3 4.769,7.19 7.187,10.87 1.264,-1 3.32,-2.78 9.459,-4.59 6.375,-1.89 15.115,1.84 20.684,4.17 1.985,-7.38 2.076,-16.8 1.89,-18.23 -0.228,-1.76 -13.833,-7.45 -27.971,-5.94"
       style="fill:#13375b;fill-opacity:1;fill-rule:nonzero;stroke:none;stroke-width:0.1"
       id="path376" /><path
       d="m 566.938,729.85 c 2.853,-21.59 16.978,-129.05 16.978,-129.05 l -32.773,-4.06 c 0,0 -40.303,140.26 -38.237,161.72 2.067,21.45 17.153,23.26 17.153,23.26 0,0 29.329,5.27 36.879,-51.87"
       style="fill:#466eb6;fill-opacity:1;fill-rule:nonzero;stroke:none;stroke-width:0.1"
       id="path378" /><path
       d="m 529.308,929.02 c 9.671,3.63 14.402,-83.51 15.707,-119.38 17.126,-1.65 46.978,-0.01 54.411,0.55 3.496,0.26 11.556,3.21 15.033,3.67 3.563,0.46 6.792,0.71 8.544,0.4 0.643,-0.11 18.495,-7.41 20.022,-9.01 1.894,-1.99 7.014,-7 6.149,-9.16 -0.863,-2.17 -9.847,6.03 -9.847,6.03 l -4.389,2.47 c 5.464,-5.34 15.889,-12.37 14.387,-14.93 -1.464,-2.5 -10.867,4.63 -17.569,9.5 5.748,-5.19 12.89,-14.49 11.244,-15.93 -1.479,-1.31 -9.602,9.45 -18.283,12.55 -3.217,1.15 -6.424,-2.03 -8.954,-2.42 -1.86,-0.28 -4.732,-0.88 -6.556,-0.36 l -9.399,2.66 c -3.203,-0.29 -3.283,-2.18 -6.516,-2.87 -3.754,-0.8 -9.913,-1.64 -14.693,-2.81 -27.528,-6.72 -36.71,-9.85 -45.138,-9.84 -25.529,0.02 -27.01,140.31 -4.153,148.88"
       style="fill:#f7a491;fill-opacity:1;fill-rule:nonzero;stroke:none;stroke-width:0.1"
       id="path380" /><path
       d="m 510.954,847.21 c -1.812,36.74 -1.547,82.02 19.048,89.75 8.127,3.05 22.452,-15.28 19.876,-90.5 -10.995,-0.9 -27.136,-1.63 -38.924,0.75"
       style="fill:#3c8f7c;fill-opacity:1;fill-rule:nonzero;stroke:none;stroke-width:0.1"
       id="path382" /><path
       d="m 673.219,602.2 c 0,0 -2.86,-9.17 2.261,-15.24 5.121,-6.06 26.398,-12.01 29.191,-15.29 2.793,-3.29 2.581,-6.08 2.581,-6.08 l -59.719,1.64 0.651,18.04 2.75,12.96 22.285,3.97"
       style="fill:#f7a491;fill-opacity:1;fill-rule:nonzero;stroke:none;stroke-width:0.1"
       id="path384" /><path
       d="m 679.194,583.94 c 0,0 -15.345,-6.21 -22.757,-2.53 -7.412,3.67 -7.188,4.69 -9.333,3.32 -2.145,-1.37 -2.913,-18.28 -2.913,-18.28 l 67.153,-1.97 c 4.673,0.11 7.036,3.55 3.239,6.5 -2.603,2.02 -5.612,3.37 -7.322,4.35 -5.253,3.01 -28.067,8.61 -28.067,8.61"
       style="fill:#13375b;fill-opacity:1;fill-rule:nonzero;stroke:none;stroke-width:0.1"
       id="path386" /><path
       d="m 670.956,764.01 c 4.615,9.71 15.113,22.36 33.584,14.74 17.616,-7.26 22.345,-25.12 16.786,-43.4 -5.557,-18.28 -42.149,-125.76 -43.425,-140.54 l -29.215,-0.19 c 0,0 5.309,85.1 6.612,105.67 1.253,19.79 7.669,46.91 15.658,63.72"
       style="fill:#466eb6;fill-opacity:1;fill-rule:nonzero;stroke:none;stroke-width:0.1"
       id="path388" /><path
       d="m 718.384,863 h -97.661 c -2.584,0 -4.912,-1.57 -5.892,-3.97 L 584.76,785.44 h -53.841 c -1.506,0 -2.727,-1.22 -2.727,-2.73 0,-1.51 1.221,-2.74 2.727,-2.74 h 153.237 c 4.213,0 8.033,2.49 9.759,6.34 l 30.279,67.68 c 1.891,4.23 -1.191,9.01 -5.81,9.01"
       style="fill:#12353d;fill-opacity:1;fill-rule:nonzero;stroke:none;stroke-width:0.1"
       id="path390" /><path
       d="m 665.803,820.14 c -0.659,-3.3 -3.533,-5.51 -6.418,-4.93 -2.885,0.58 -4.689,3.72 -4.029,7.03 0.66,3.31 3.533,5.52 6.418,4.94 2.885,-0.58 4.689,-3.73 4.029,-7.04"
       style="fill:#ffffff;fill-opacity:1;fill-rule:nonzero;stroke:none;stroke-width:0.1"
       id="path392" /><path
       d="m 612.644,1032.55 c -2.943,0.99 -5.841,2.11 -8.64,3.46 -3.162,1.52 -7.261,3.31 -9.851,3.71 -5.45,0.84 -14.813,0.28 -19.984,-5.33 -6.442,-6.99 -17.888,-1.26 -15.583,-37.86 2.611,-41.43 25.645,-36.88 26.204,-36.18 0.559,0.7 20.543,26.5 20.543,26.5 0,0 6.988,-15.28 6.988,-14.72 0,0.54 35.679,48.51 0.323,60.42"
       style="fill:#0e2e35;fill-opacity:1;fill-rule:nonzero;stroke:none;stroke-width:0.1"
       id="path394" /><path
       d="m 595.157,957.29 1.989,-14.8 c 0,0 4.454,-21.33 -1.277,-25.44 -5.73,-4.11 -24.37,26.05 -24.37,26.05 l 1.969,37.5 21.689,-23.31"
       style="fill:#f7a491;fill-opacity:1;fill-rule:nonzero;stroke:none;stroke-width:0.1"
       id="path396" /><path
       d="m 572.832,968.45 c 4.733,-12.8 16.008,-20.66 24.011,-23.71 l -1.686,12.55 -21.689,23.31 -0.636,-12.15"
       style="fill:#f26a3c;fill-opacity:1;fill-rule:nonzero;stroke:none;stroke-width:0.1"
       id="path398" /><path
       d="m 593.98,1021.42 c 12.143,1.96 23.035,-7.8 22.731,-19.96 -0.131,-5.28 -0.565,-11.88 -1.663,-18.99 -2.64,-17.09 -14.298,-32.13 -22.006,-30.79 -7.709,1.35 -27.105,16.09 -23.69,40.4 2.108,15.02 11.885,27.28 24.628,29.34"
       style="fill:#f7a491;fill-opacity:1;fill-rule:nonzero;stroke:none;stroke-width:0.1"
       id="path400" /><path
       d="m 574.701,989.18 c -0.651,-3.76 -3.66,-6.37 -6.723,-5.84 -3.062,0.54 -5.017,4.02 -4.367,7.77 0.651,3.76 3.66,6.37 6.723,5.84 3.062,-0.53 5.017,-4.01 4.367,-7.77"
       style="fill:#f7a491;fill-opacity:1;fill-rule:nonzero;stroke:none;stroke-width:0.1"
       id="path402" /><path
       d="m 570.334,996.95 c 0,0 9.32,-2.32 12.779,3.68 3.459,6 15.827,18.93 31.549,13.57 15.722,-5.37 -13.835,13.04 -15.093,13.04 -1.258,0 -16.351,0.1 -16.351,0.1 0,0 -11.635,-9.57 -12.054,-10.62 -0.419,-1.05 -3.773,-12.51 -3.773,-12.51 l 2.943,-7.26"
       style="fill:#0e2e35;fill-opacity:1;fill-rule:nonzero;stroke:none;stroke-width:0.1"
       id="path404" /><path
       d="m 587.386,971.94 16.959,-3.24 c 0,0 -1.618,-6.39 -9.117,-5.18 -9.144,1.47 -7.842,8.42 -7.842,8.42"
       style="fill:#ffffff;fill-opacity:1;fill-rule:nonzero;stroke:none;stroke-width:0.1"
       id="path406" /><g
       id="g408"
       transform="scale(0.126575)"><path
         d="M 16250.5,1001.54 H 2279.21 c -27.36,0 -49.54,-22.202 -49.54,-49.539 0,-27.333 22.18,-49.535 49.54,-49.535 H 16250.5 c 27.4,0 49.5,22.202 49.5,49.535 0,27.337 -22.1,49.539 -49.5,49.539"
         style="fill:#12353d;fill-opacity:1;fill-rule:nonzero;stroke:none"
         id="path410" /></g><g
       id="g412"
       transform="scale(0.111713)"><path
         d="m 15172.5,5212.2 c -8,22.83 103.3,41.36 109.2,64.45 5.9,23.19 -140.5,24.98 -145.7,45.3 -9.6,37.41 160.4,7.87 157,25.33 -3.3,17.54 -177.2,56.66 -158.4,86.74 18.8,29.99 176.1,-59.44 180.8,-39.03 4.9,20.41 -153.7,70 -150.8,114.67 1.5,23.9 260.1,-119.06 290.1,-106.08 30,12.98 -32.3,125.24 -8.4,141.89 23.9,16.65 92.5,-228.18 108.9,-236.32 16.4,-8.15 365.9,-207.59 490.2,-239.37 15.1,41.72 47.7,97.84 61.1,137.23 69.7,-49.68 121.5,-74.57 193.5,-119.86 -52.2,-130.69 -126.4,-273.83 -162.7,-290.21 -110.7,-49.95 -538.6,304.89 -624,365.67 -85.5,60.78 -134.4,41.09 -192.2,60.24 -57.9,19.25 -140.6,-33.56 -148.6,-10.65"
         style="fill:#f7a491;fill-opacity:1;fill-rule:nonzero;stroke:none"
         id="path414" /></g><g
       id="g416"
       transform="scale(0.113059)"><path
         d="m 16267.4,5396.39 c 32.6,-134.53 -141.6,-434.37 -141.6,-434.37 0,0 -248.1,117.1 -291.8,167.61 0,0 168.6,290.91 179.7,308.6 50,80.13 117.9,80.22 162.2,75 35.6,-4.15 91.5,-116.84 91.5,-116.84"
         style="fill:#eab765;fill-opacity:1;fill-rule:nonzero;stroke:none"
         id="path418" /></g></g></svg>
